<svg width="32" height="32" viewBox="0 0 32 32" fill="none" xmlns="http://www.w3.org/2000/svg">
<path fill-rule="evenodd" clip-rule="evenodd" d="M16.0048 0C24.8377 0 32.0096 7.16232 32.0096 16.0048C32.0096 24.8377 24.8473 32.0096 16.0048 32.0096C7.17192 32.0096 0 24.8473 0 16.0048C0 7.17192 7.16232 0 16.0048 0ZM13.9406 12.8269H17.2241V14.5071H17.2721C17.733 13.6814 18.8467 12.8269 20.5173 12.8269C23.9832 12.8269 24.6265 14.9871 24.6265 17.7906V23.5128H21.1989V18.4434C21.1989 17.2337 21.1701 15.6784 19.4131 15.6784C17.6274 15.6784 17.3585 16.9937 17.3585 18.357V23.5128H13.931V12.8269H13.9406ZM11.5692 9.86019C11.5692 10.8395 10.7723 11.646 9.78338 11.646C8.80408 11.646 7.9976 10.8491 7.9976 9.86019C7.9976 8.88089 8.79448 8.07441 9.78338 8.07441C10.7627 8.07441 11.5692 8.87129 11.5692 9.86019ZM8.0072 12.8269H11.5692V23.5128H8.0072V12.8269Z" fill="#FFFEFF"/>
</svg>
