<svg width="375" height="375" viewBox="0 0 375 375" fill="none" xmlns="http://www.w3.org/2000/svg">
<g clip-path="url(#clip0)">
<rect width="375" height="375" fill="white"/>
<mask id="path-1-inside-1" fill="white">
<path fill-rule="evenodd" clip-rule="evenodd" d="M122.552 368.949C122.368 369.317 122.428 369.76 122.703 370.066L126.45 374.228C126.639 374.439 126.909 374.559 127.193 374.559H132.778C133.474 374.559 133.943 373.848 133.669 373.209C133.329 372.415 134.323 371.105 134.766 370.365C134.899 370.142 135.012 369.866 135.095 369.526C135.262 368.838 135.966 368.372 136.668 368.463C138.755 368.732 138.566 366.755 138.008 365.201C137.867 364.808 137.943 364.364 138.237 364.069L141.377 360.93C141.609 360.698 141.712 360.366 141.654 360.044L141.02 356.556C140.891 355.849 140.08 355.504 139.481 355.903L139.302 356.023C138.638 356.466 137.747 355.989 137.747 355.191V350.059L139.203 338.896C139.232 338.678 139.332 338.475 139.486 338.318C140.806 336.967 143.437 334.061 145.608 330.99C145.798 330.721 146.105 330.559 146.434 330.559H171.117C176.63 330.559 181.292 326.478 182.02 321.013L183.549 309.546C183.663 308.695 184.389 308.059 185.247 308.059C186.106 308.059 186.832 308.695 186.946 309.546L188.475 321.013C188.667 322.457 189.134 323.804 189.819 325.005C189.995 325.314 190.021 325.697 189.798 325.974C189.069 326.881 187.334 328.251 183.745 329.842C183.436 329.979 183.08 329.932 182.772 329.795C179.515 328.345 176.628 334.328 175.406 338.058C175.303 338.372 175.369 338.714 175.584 338.964C176.312 339.809 177.406 340.9 177.747 340.559C178.116 340.191 179.36 339.229 180.076 338.688C180.189 338.603 180.318 338.542 180.458 338.517C181.783 338.285 184.032 338.436 184.917 340.354C185.186 340.937 184.632 341.505 184 341.621C180.203 342.32 175.695 347.362 173.747 350.059C172.829 351.437 171.741 353.913 174.053 353.685C174.473 353.644 174.764 353.276 174.887 352.872C176.165 348.652 184.972 344.729 187.933 346.573C188.491 346.921 189.276 347.169 189.895 346.947C192.362 346.063 194.629 347.926 195.959 349.77C196.379 350.351 195.952 351.107 195.237 351.151L180.451 352.047C180.317 352.055 180.185 352.088 180.069 352.157C179.519 352.484 178.71 353.181 178.388 354.176C178.23 354.662 178.636 355.102 179.145 355.153C192.165 356.469 200.3 355.286 203.477 354.324C203.933 354.186 204.186 353.722 204.1 353.254L200.156 331.739C200.043 331.125 200.515 330.559 201.139 330.559H216.992C217.346 330.559 217.673 330.745 217.853 331.049C218.248 331.716 217.767 332.559 216.992 332.559H211.622C211.121 332.559 210.698 332.929 210.631 333.426L207.364 357.692C207.297 358.189 206.874 358.559 206.373 358.559H197.924C197.516 358.559 197.148 358.808 196.996 359.188L194.469 365.505C194.333 365.846 194.02 366.085 193.654 366.127L176.915 368.04C176.804 368.053 176.696 368.084 176.595 368.132L167.196 372.658C166.238 373.119 166.566 374.559 167.629 374.559H253.028C253.659 374.559 254.133 373.984 254.02 373.364C253.35 369.68 252.345 362.819 252.254 356.905C252.247 356.417 252.603 356.004 253.081 355.9C260.99 354.174 257.15 348.462 254.247 345.559C251.965 343.277 254.024 335.688 255.521 331.653C255.657 331.288 255.996 331.044 256.385 331.02L335.008 326.188C336.216 326.114 336.289 324.371 335.09 324.213C308.217 320.683 267.202 315.522 256.932 315.088C256.306 315.062 255.855 314.49 255.92 313.867C256.533 308.075 254.218 300.734 252.627 296.931C252.421 296.438 252.621 295.867 253.096 295.624L320.621 260.996C321.703 260.441 321.05 258.793 319.884 259.138C295.561 266.348 259.086 277.05 248.465 279.757C247.839 279.916 247.209 279.435 247.009 278.82C245.613 274.526 238.407 265.469 234.238 260.625C233.947 260.288 233.913 259.802 234.154 259.427L275.522 195.175C276.173 194.164 274.825 193.084 273.983 193.943C260.01 208.21 236.827 232.112 219.333 250.929C218.994 251.293 218.449 251.349 218.022 251.092C212.625 247.844 200.962 245.231 194.962 244.181C194.535 244.106 194.204 243.768 194.141 243.338L182.12 161.859C181.944 160.672 180.229 160.733 180.156 161.93C178.774 184.564 176.807 221.774 176.749 243.108C176.747 243.647 176.32 244.072 175.782 244.105C165.1 244.743 154.889 249.756 150.415 252.619C150.019 252.873 149.504 252.829 149.163 252.506L85.2474 192.059C84.5847 191.396 93.7397 204.9 135.509 264.014C135.88 264.539 135.681 265.292 135.11 265.585C129.268 268.577 124.631 275.446 122.633 279.288C122.404 279.728 121.897 279.951 121.423 279.805L53.378 258.868C52.23 258.515 51.5483 260.115 52.5982 260.698L115.669 295.738C116.02 295.933 116.22 296.318 116.178 296.717L114.33 314.271C114.282 314.733 113.922 315.1 113.461 315.159L40.8745 324.341C39.681 324.492 39.7213 326.226 40.9207 326.319C64.9811 328.184 101.851 330.87 113.158 331.05C113.746 331.059 114.201 331.561 114.176 332.149C113.817 340.707 117.721 353.697 120.007 359.913C120.15 360.303 120.522 360.559 120.938 360.559H125.129C125.873 360.559 126.356 361.341 126.024 362.006L122.552 368.949ZM210.411 299.559C211.428 299.559 211.796 298.217 210.921 297.699L189.462 284.983C189.048 284.737 188.517 284.822 188.2 285.185L185.417 288.365C185.306 288.492 185.166 288.589 185.007 288.647C179.783 290.561 172.974 293.693 166.491 297.786C165.66 298.31 166.04 299.559 167.022 299.559H210.411ZM143.821 299.559C144.087 299.559 144.341 299.453 144.53 299.265C152.887 290.938 163.292 283.564 174.259 282.119C174.567 282.079 174.842 281.902 175.001 281.636C177.89 276.813 179.02 274.797 179.335 274.134L185.883 279.747C186.114 279.944 186.421 280.026 186.719 279.971L193.77 278.648C194.072 278.592 194.382 278.677 194.613 278.879L197.148 281.097C197.677 281.56 198.506 281.347 198.747 280.686L199.161 279.547C199.495 278.628 200.815 278.686 201.067 279.631L202.049 283.317C202.166 283.754 202.563 284.059 203.016 284.059H206.04C206.431 284.059 206.747 283.742 206.747 283.352C206.747 282.502 207.972 282.374 208.147 283.206L208.663 285.656C208.717 285.913 208.874 286.138 209.097 286.277L211.556 287.814C212.075 288.138 212.747 287.766 212.747 287.154C212.747 286.223 214.085 286.076 214.287 286.985L214.614 288.458C214.695 288.823 214.984 289.106 215.351 289.18L215.981 289.306C216.622 289.434 217.212 288.923 217.176 288.27L217.106 287.016C217.047 285.958 218.534 285.662 218.884 286.663L219.281 287.798C219.51 288.453 220.469 288.339 220.538 287.649C220.602 287.014 221.448 286.843 221.753 287.403L222.104 288.047C222.538 288.842 223.747 288.534 223.747 287.628V287.295C223.747 286.283 225.12 285.976 225.551 286.892L226.008 287.862C226.362 288.616 227.498 288.316 227.434 287.485C227.377 286.749 228.306 286.383 228.768 286.959L230.424 289.03C231.093 289.866 232.109 289.31 231.626 288.354C228.123 281.424 219.815 272.344 207.217 271.136C206.68 271.084 206.261 270.629 206.278 270.089C206.412 265.815 206.51 262.762 206.581 260.619C206.616 259.547 205.373 259.271 205.06 260.296C204.297 262.794 203.655 265.989 203.703 269.377C203.711 269.996 203.183 270.499 202.567 270.438C195.948 269.774 194.247 269.901 194.247 270.059L193.744 263.852C193.645 262.626 191.85 262.626 191.751 263.852L191.327 269.081C191.283 269.624 190.814 270.032 190.269 270.003C187.66 269.868 183.414 269.737 180.735 269.953C180.186 269.997 179.682 269.619 179.601 269.075C179.243 266.664 178.913 264.468 178.614 262.494C178.43 261.281 176.747 261.414 176.747 262.642V269.624C176.747 270.15 176.341 270.586 175.816 270.628C173.409 270.82 169.612 271.229 167.516 271.807C167.061 271.933 166.563 271.773 166.282 271.392C165.251 269.993 164.865 270.047 164.771 270.368C164.736 270.491 164.723 270.62 164.676 270.738L163.931 272.601C163.815 272.89 163.582 273.104 163.284 273.194C152.488 276.433 130.292 289.948 123.849 319.586C123.784 319.881 123.859 320.196 124.051 320.43C125.144 321.765 125.824 322.592 126.221 323.071L121.268 325.322C120.946 325.469 120.725 325.775 120.688 326.128L118.778 344.268C118.758 344.458 118.793 344.65 118.878 344.82L119.475 346.015C119.898 346.859 121.164 346.708 121.393 345.792C123.24 338.386 126.767 327.95 130.821 325.792C131.528 325.416 132.259 324.242 131.972 323.495C131.848 323.17 131.558 322.927 131.213 322.888L129.137 322.658C128.631 322.602 128.247 322.173 128.247 321.664V320.33C128.247 320.153 128.295 319.978 128.385 319.825C129.145 318.54 130.046 317.113 131.075 315.587C131.187 315.421 131.247 315.225 131.247 315.025V310.559C131.247 304.484 136.172 299.559 142.247 299.559H143.821ZM126.221 323.071C127.001 324.012 126.688 323.609 126.266 323.082C126.255 323.068 126.237 323.064 126.221 323.071ZM179.335 274.134C179.49 273.807 179.447 273.81 179.318 273.968C179.277 274.018 179.286 274.092 179.335 274.134Z"/>
</mask>
<path fill-rule="evenodd" clip-rule="evenodd" d="M122.552 368.949C122.368 369.317 122.428 369.76 122.703 370.066L126.45 374.228C126.639 374.439 126.909 374.559 127.193 374.559H132.778C133.474 374.559 133.943 373.848 133.669 373.209C133.329 372.415 134.323 371.105 134.766 370.365C134.899 370.142 135.012 369.866 135.095 369.526C135.262 368.838 135.966 368.372 136.668 368.463C138.755 368.732 138.566 366.755 138.008 365.201C137.867 364.808 137.943 364.364 138.237 364.069L141.377 360.93C141.609 360.698 141.712 360.366 141.654 360.044L141.02 356.556C140.891 355.849 140.08 355.504 139.481 355.903L139.302 356.023C138.638 356.466 137.747 355.989 137.747 355.191V350.059L139.203 338.896C139.232 338.678 139.332 338.475 139.486 338.318C140.806 336.967 143.437 334.061 145.608 330.99C145.798 330.721 146.105 330.559 146.434 330.559H171.117C176.63 330.559 181.292 326.478 182.02 321.013L183.549 309.546C183.663 308.695 184.389 308.059 185.247 308.059C186.106 308.059 186.832 308.695 186.946 309.546L188.475 321.013C188.667 322.457 189.134 323.804 189.819 325.005C189.995 325.314 190.021 325.697 189.798 325.974C189.069 326.881 187.334 328.251 183.745 329.842C183.436 329.979 183.08 329.932 182.772 329.795C179.515 328.345 176.628 334.328 175.406 338.058C175.303 338.372 175.369 338.714 175.584 338.964C176.312 339.809 177.406 340.9 177.747 340.559C178.116 340.191 179.36 339.229 180.076 338.688C180.189 338.603 180.318 338.542 180.458 338.517C181.783 338.285 184.032 338.436 184.917 340.354C185.186 340.937 184.632 341.505 184 341.621C180.203 342.32 175.695 347.362 173.747 350.059C172.829 351.437 171.741 353.913 174.053 353.685C174.473 353.644 174.764 353.276 174.887 352.872C176.165 348.652 184.972 344.729 187.933 346.573C188.491 346.921 189.276 347.169 189.895 346.947C192.362 346.063 194.629 347.926 195.959 349.77C196.379 350.351 195.952 351.107 195.237 351.151L180.451 352.047C180.317 352.055 180.185 352.088 180.069 352.157C179.519 352.484 178.71 353.181 178.388 354.176C178.23 354.662 178.636 355.102 179.145 355.153C192.165 356.469 200.3 355.286 203.477 354.324C203.933 354.186 204.186 353.722 204.1 353.254L200.156 331.739C200.043 331.125 200.515 330.559 201.139 330.559H216.992C217.346 330.559 217.673 330.745 217.853 331.049C218.248 331.716 217.767 332.559 216.992 332.559H211.622C211.121 332.559 210.698 332.929 210.631 333.426L207.364 357.692C207.297 358.189 206.874 358.559 206.373 358.559H197.924C197.516 358.559 197.148 358.808 196.996 359.188L194.469 365.505C194.333 365.846 194.02 366.085 193.654 366.127L176.915 368.04C176.804 368.053 176.696 368.084 176.595 368.132L167.196 372.658C166.238 373.119 166.566 374.559 167.629 374.559H253.028C253.659 374.559 254.133 373.984 254.02 373.364C253.35 369.68 252.345 362.819 252.254 356.905C252.247 356.417 252.603 356.004 253.081 355.9C260.99 354.174 257.15 348.462 254.247 345.559C251.965 343.277 254.024 335.688 255.521 331.653C255.657 331.288 255.996 331.044 256.385 331.02L335.008 326.188C336.216 326.114 336.289 324.371 335.09 324.213C308.217 320.683 267.202 315.522 256.932 315.088C256.306 315.062 255.855 314.49 255.92 313.867C256.533 308.075 254.218 300.734 252.627 296.931C252.421 296.438 252.621 295.867 253.096 295.624L320.621 260.996C321.703 260.441 321.05 258.793 319.884 259.138C295.561 266.348 259.086 277.05 248.465 279.757C247.839 279.916 247.209 279.435 247.009 278.82C245.613 274.526 238.407 265.469 234.238 260.625C233.947 260.288 233.913 259.802 234.154 259.427L275.522 195.175C276.173 194.164 274.825 193.084 273.983 193.943C260.01 208.21 236.827 232.112 219.333 250.929C218.994 251.293 218.449 251.349 218.022 251.092C212.625 247.844 200.962 245.231 194.962 244.181C194.535 244.106 194.204 243.768 194.141 243.338L182.12 161.859C181.944 160.672 180.229 160.733 180.156 161.93C178.774 184.564 176.807 221.774 176.749 243.108C176.747 243.647 176.32 244.072 175.782 244.105C165.1 244.743 154.889 249.756 150.415 252.619C150.019 252.873 149.504 252.829 149.163 252.506L85.2474 192.059C84.5847 191.396 93.7397 204.9 135.509 264.014C135.88 264.539 135.681 265.292 135.11 265.585C129.268 268.577 124.631 275.446 122.633 279.288C122.404 279.728 121.897 279.951 121.423 279.805L53.378 258.868C52.23 258.515 51.5483 260.115 52.5982 260.698L115.669 295.738C116.02 295.933 116.22 296.318 116.178 296.717L114.33 314.271C114.282 314.733 113.922 315.1 113.461 315.159L40.8745 324.341C39.681 324.492 39.7213 326.226 40.9207 326.319C64.9811 328.184 101.851 330.87 113.158 331.05C113.746 331.059 114.201 331.561 114.176 332.149C113.817 340.707 117.721 353.697 120.007 359.913C120.15 360.303 120.522 360.559 120.938 360.559H125.129C125.873 360.559 126.356 361.341 126.024 362.006L122.552 368.949ZM210.411 299.559C211.428 299.559 211.796 298.217 210.921 297.699L189.462 284.983C189.048 284.737 188.517 284.822 188.2 285.185L185.417 288.365C185.306 288.492 185.166 288.589 185.007 288.647C179.783 290.561 172.974 293.693 166.491 297.786C165.66 298.31 166.04 299.559 167.022 299.559H210.411ZM143.821 299.559C144.087 299.559 144.341 299.453 144.53 299.265C152.887 290.938 163.292 283.564 174.259 282.119C174.567 282.079 174.842 281.902 175.001 281.636C177.89 276.813 179.02 274.797 179.335 274.134L185.883 279.747C186.114 279.944 186.421 280.026 186.719 279.971L193.77 278.648C194.072 278.592 194.382 278.677 194.613 278.879L197.148 281.097C197.677 281.56 198.506 281.347 198.747 280.686L199.161 279.547C199.495 278.628 200.815 278.686 201.067 279.631L202.049 283.317C202.166 283.754 202.563 284.059 203.016 284.059H206.04C206.431 284.059 206.747 283.742 206.747 283.352C206.747 282.502 207.972 282.374 208.147 283.206L208.663 285.656C208.717 285.913 208.874 286.138 209.097 286.277L211.556 287.814C212.075 288.138 212.747 287.766 212.747 287.154C212.747 286.223 214.085 286.076 214.287 286.985L214.614 288.458C214.695 288.823 214.984 289.106 215.351 289.18L215.981 289.306C216.622 289.434 217.212 288.923 217.176 288.27L217.106 287.016C217.047 285.958 218.534 285.662 218.884 286.663L219.281 287.798C219.51 288.453 220.469 288.339 220.538 287.649C220.602 287.014 221.448 286.843 221.753 287.403L222.104 288.047C222.538 288.842 223.747 288.534 223.747 287.628V287.295C223.747 286.283 225.12 285.976 225.551 286.892L226.008 287.862C226.362 288.616 227.498 288.316 227.434 287.485C227.377 286.749 228.306 286.383 228.768 286.959L230.424 289.03C231.093 289.866 232.109 289.31 231.626 288.354C228.123 281.424 219.815 272.344 207.217 271.136C206.68 271.084 206.261 270.629 206.278 270.089C206.412 265.815 206.51 262.762 206.581 260.619C206.616 259.547 205.373 259.271 205.06 260.296C204.297 262.794 203.655 265.989 203.703 269.377C203.711 269.996 203.183 270.499 202.567 270.438C195.948 269.774 194.247 269.901 194.247 270.059L193.744 263.852C193.645 262.626 191.85 262.626 191.751 263.852L191.327 269.081C191.283 269.624 190.814 270.032 190.269 270.003C187.66 269.868 183.414 269.737 180.735 269.953C180.186 269.997 179.682 269.619 179.601 269.075C179.243 266.664 178.913 264.468 178.614 262.494C178.43 261.281 176.747 261.414 176.747 262.642V269.624C176.747 270.15 176.341 270.586 175.816 270.628C173.409 270.82 169.612 271.229 167.516 271.807C167.061 271.933 166.563 271.773 166.282 271.392C165.251 269.993 164.865 270.047 164.771 270.368C164.736 270.491 164.723 270.62 164.676 270.738L163.931 272.601C163.815 272.89 163.582 273.104 163.284 273.194C152.488 276.433 130.292 289.948 123.849 319.586C123.784 319.881 123.859 320.196 124.051 320.43C125.144 321.765 125.824 322.592 126.221 323.071L121.268 325.322C120.946 325.469 120.725 325.775 120.688 326.128L118.778 344.268C118.758 344.458 118.793 344.65 118.878 344.82L119.475 346.015C119.898 346.859 121.164 346.708 121.393 345.792C123.24 338.386 126.767 327.95 130.821 325.792C131.528 325.416 132.259 324.242 131.972 323.495C131.848 323.17 131.558 322.927 131.213 322.888L129.137 322.658C128.631 322.602 128.247 322.173 128.247 321.664V320.33C128.247 320.153 128.295 319.978 128.385 319.825C129.145 318.54 130.046 317.113 131.075 315.587C131.187 315.421 131.247 315.225 131.247 315.025V310.559C131.247 304.484 136.172 299.559 142.247 299.559H143.821ZM126.221 323.071C127.001 324.012 126.688 323.609 126.266 323.082C126.255 323.068 126.237 323.064 126.221 323.071ZM179.335 274.134C179.49 273.807 179.447 273.81 179.318 273.968C179.277 274.018 179.286 274.092 179.335 274.134Z" fill="#DFA4D7"/>
<path d="M137.747 350.059L136.756 349.93L136.747 349.994V350.059H137.747ZM182.02 321.013L183.011 321.145L182.02 321.013ZM183.549 309.546L184.54 309.678L184.54 309.678L183.549 309.546ZM186.946 309.546L185.954 309.678V309.678L186.946 309.546ZM188.475 321.013L189.466 320.881L188.475 321.013ZM173.747 350.059L172.937 349.474L172.926 349.489L172.915 349.504L173.747 350.059ZM85.2474 192.059L84.5403 192.766L84.5502 192.776L84.5603 192.786L85.2474 192.059ZM194.247 270.059L193.251 270.14L195.247 270.059H194.247ZM179.318 273.968L180.094 274.599L179.318 273.968ZM126.266 323.082L127.047 322.457L126.266 323.082ZM131.075 315.587L131.904 316.146L131.075 315.587ZM128.385 319.825L129.246 320.334L128.385 319.825ZM129.137 322.658L129.247 321.664L129.137 322.658ZM131.213 322.888L131.102 323.882L131.213 322.888ZM130.821 325.792L131.291 326.675L130.821 325.792ZM203.703 269.377L204.702 269.363L203.703 269.377ZM202.567 270.438L202.468 271.433L202.567 270.438ZM206.581 260.619L205.581 260.586L206.581 260.619ZM205.06 260.296L206.016 260.589L205.06 260.296ZM207.217 271.136L207.313 270.14L207.217 271.136ZM206.278 270.089L207.277 270.12L206.278 270.089ZM231.626 288.354L232.519 287.903L231.626 288.354ZM226.008 287.862L226.912 287.436L226.008 287.862ZM225.551 286.892L226.456 286.466L225.551 286.892ZM222.104 288.047L222.982 287.568L222.104 288.047ZM221.753 287.403L220.875 287.881L221.753 287.403ZM219.281 287.798L218.337 288.129L219.281 287.798ZM217.106 287.016L216.108 287.071L217.106 287.016ZM218.884 286.663L217.94 286.993L218.884 286.663ZM215.981 289.306L216.177 288.325L215.981 289.306ZM217.176 288.27L216.177 288.325L217.176 288.27ZM214.614 288.458L215.59 288.241L214.614 288.458ZM215.351 289.18L215.547 288.199L215.351 289.18ZM214.287 286.985L215.263 286.768L214.287 286.985ZM211.556 287.814L211.026 288.662L211.556 287.814ZM208.663 285.656L207.684 285.862L208.663 285.656ZM209.097 286.277L208.567 287.125L209.097 286.277ZM208.147 283.206L207.168 283.412L208.147 283.206ZM202.049 283.317L203.016 283.059L202.049 283.317ZM199.161 279.547L200.101 279.889L199.161 279.547ZM201.067 279.631L200.101 279.889L201.067 279.631ZM197.148 281.097L197.807 280.345L197.148 281.097ZM198.747 280.686L197.807 280.345L198.747 280.686ZM193.77 278.648L193.954 279.631L193.77 278.648ZM194.613 278.879L195.271 278.126L194.613 278.879ZM185.883 279.747L186.534 278.988L185.883 279.747ZM186.719 279.971L186.903 280.954L186.719 279.971ZM174.259 282.119L174.128 281.128L174.259 282.119ZM175.001 281.636L174.143 281.122L175.001 281.636ZM144.53 299.265L145.236 299.974L144.53 299.265ZM166.491 297.786L167.025 298.631L166.491 297.786ZM185.417 288.365L184.664 287.707L185.417 288.365ZM185.007 288.647L184.663 287.708L185.007 288.647ZM189.462 284.983L188.953 285.843L189.462 284.983ZM188.2 285.185L188.953 285.843L188.2 285.185ZM210.921 297.699L210.411 298.559L210.921 297.699ZM120.007 359.913L119.068 360.258L120.007 359.913ZM113.158 331.05L113.174 330.05L113.158 331.05ZM114.176 332.149L115.175 332.191L114.176 332.149ZM40.8745 324.341L40.749 323.349L40.8745 324.341ZM40.9207 326.319L40.8434 327.316L40.9207 326.319ZM114.33 314.271L113.336 314.166L114.33 314.271ZM113.461 315.159L113.336 314.166L113.461 315.159ZM115.669 295.738L116.155 294.864L115.669 295.738ZM116.178 296.717L115.184 296.612L116.178 296.717ZM53.378 258.868L53.0839 259.824L53.378 258.868ZM52.5982 260.698L53.0839 259.824L52.5982 260.698ZM122.633 279.288L123.52 279.749L122.633 279.288ZM121.423 279.805L121.129 280.761L121.423 279.805ZM252.627 296.931L253.549 296.545L252.627 296.931ZM253.096 295.624L252.64 294.734L253.096 295.624ZM256.932 315.088L256.974 314.089L256.932 315.088ZM335.008 326.188L334.947 325.19L335.008 326.188ZM335.09 324.213L335.22 323.222L335.09 324.213ZM255.521 331.653L254.584 331.305L255.521 331.653ZM256.385 331.02L256.323 330.022L256.385 331.02ZM252.254 356.905L251.254 356.921L252.254 356.905ZM253.081 355.9L252.867 354.923L253.081 355.9ZM254.02 373.364L253.036 373.542L254.02 373.364ZM167.196 372.658L167.629 373.559L167.196 372.658ZM176.915 368.04L176.802 367.046L176.915 368.04ZM176.595 368.132L177.029 369.033L176.595 368.132ZM193.654 366.127L193.541 365.133L193.654 366.127ZM196.996 359.188L197.924 359.559L196.996 359.188ZM207.364 357.692L208.355 357.826L207.364 357.692ZM210.631 333.426L209.64 333.292L210.631 333.426ZM180.076 338.688L179.473 337.891L180.076 338.688ZM180.458 338.517L180.286 337.532L180.458 338.517ZM175.406 338.058L176.356 338.37L175.406 338.058ZM175.584 338.964L174.826 339.617L175.584 338.964ZM183.745 329.842L183.34 328.928L183.745 329.842ZM182.772 329.795L182.365 330.708L182.772 329.795ZM189.819 325.005L190.687 324.509L189.819 325.005ZM189.798 325.974L189.019 325.348L189.798 325.974ZM135.509 264.014L136.326 263.437L135.509 264.014ZM135.11 265.585L135.565 266.475L135.11 265.585ZM121.268 325.322L120.854 324.412L121.268 325.322ZM120.688 326.128L121.682 326.233L120.688 326.128ZM139.203 338.896L138.212 338.767L139.203 338.896ZM139.486 338.318L140.201 339.017L139.486 338.318ZM200.156 331.739L201.139 331.559L200.156 331.739ZM150.415 252.619L150.954 253.462L150.415 252.619ZM149.163 252.506L148.476 253.233L149.163 252.506ZM123.849 319.586L122.872 319.373L123.849 319.586ZM124.051 320.43L123.277 321.063L124.051 320.43ZM139.302 356.023L139.857 356.855L139.302 356.023ZM204.1 353.254L203.116 353.435L204.1 353.254ZM176.749 243.108L177.749 243.111L176.749 243.108ZM175.782 244.105L175.723 243.106L175.782 244.105ZM163.931 272.601L163.002 272.23L163.931 272.601ZM163.284 273.194L162.997 272.236L163.284 273.194ZM141.02 356.556L140.036 356.735L141.02 356.556ZM139.481 355.903L138.926 355.071L139.481 355.903ZM178.388 354.176L179.339 354.484L178.388 354.176ZM179.145 355.153L179.245 354.158L179.145 355.153ZM182.12 161.859L181.13 162.005L182.12 161.859ZM180.156 161.93L179.158 161.869L180.156 161.93ZM164.771 270.368L165.732 270.647L164.771 270.368ZM164.676 270.738L163.747 270.366L164.676 270.738ZM141.377 360.93L142.084 361.637L141.377 360.93ZM141.654 360.044L142.638 359.865L141.654 360.044ZM180.451 352.047L180.512 353.045L180.451 352.047ZM180.069 352.157L179.558 351.297L180.069 352.157ZM194.962 244.181L194.79 245.166L194.962 244.181ZM194.141 243.338L193.152 243.484L194.141 243.338ZM167.516 271.807L167.25 270.843L167.516 271.807ZM166.282 271.392L167.087 270.799L166.282 271.392ZM138.008 365.201L138.949 364.863L138.008 365.201ZM138.237 364.069L137.53 363.362L138.237 364.069ZM195.959 349.77L195.149 350.355L195.959 349.77ZM195.237 351.151L195.176 350.152L195.237 351.151ZM219.333 250.929L218.6 250.248L219.333 250.929ZM218.022 251.092L217.507 251.949L218.022 251.092ZM175.816 270.628L175.736 269.631L175.816 270.628ZM135.095 369.526L134.123 369.289L135.095 369.526ZM136.668 368.463L136.796 367.471L136.668 368.463ZM187.933 346.573L188.462 345.725L187.933 346.573ZM189.895 346.947L189.558 346.006L189.895 346.947ZM275.522 195.175L274.682 194.633L275.522 195.175ZM273.983 193.943L274.698 194.643L273.983 193.943ZM134.766 370.365L133.908 369.851L134.766 370.365ZM174.053 353.685L174.151 354.681L174.053 353.685ZM174.887 352.872L175.844 353.162L174.887 352.872ZM234.238 260.625L234.996 259.973L234.238 260.625ZM234.154 259.427L234.995 259.969L234.154 259.427ZM180.735 269.953L180.655 268.956L180.735 269.953ZM179.601 269.075L178.612 269.222L179.601 269.075ZM248.465 279.757L248.218 278.788L248.465 279.757ZM247.009 278.82L247.96 278.51L247.009 278.82ZM191.327 269.081L192.324 269.161L191.327 269.081ZM190.269 270.003L190.217 271.002L190.269 270.003ZM122.703 370.066L121.96 370.735L122.703 370.066ZM118.778 344.268L117.784 344.164L118.778 344.268ZM145.608 330.99L146.424 331.567L145.608 330.99ZM184.917 340.354L184.009 340.773L184.917 340.354ZM184 341.621L183.819 340.638L184 341.621ZM319.884 259.138L319.6 258.179L319.884 259.138ZM193.744 263.852L192.747 263.933L193.744 263.852ZM191.751 263.852L192.747 263.933L191.751 263.852ZM126.45 374.228L125.706 374.897L126.45 374.228ZM127.193 373.559L123.447 369.397L121.96 370.735L125.706 374.897L127.193 373.559ZM132.778 373.559H127.193V375.559H132.778V373.559ZM134.123 369.289C134.06 369.548 133.981 369.728 133.908 369.851L135.624 370.878C135.817 370.557 135.964 370.184 136.066 369.762L134.123 369.289ZM137.067 365.539C137.333 366.281 137.433 366.936 137.353 367.301C137.337 367.376 137.317 367.414 137.308 367.43C137.3 367.442 137.297 367.443 137.295 367.444C137.293 367.445 137.177 367.52 136.796 367.471L136.54 369.454C137.202 369.54 137.845 369.468 138.377 369.126C138.924 368.775 139.194 368.241 139.306 367.73C139.514 366.786 139.241 365.676 138.949 364.863L137.067 365.539ZM140.67 360.222L137.53 363.362L138.945 364.776L142.084 361.637L140.67 360.222ZM140.036 356.735L140.67 360.222L142.638 359.865L142.004 356.378L140.036 356.735ZM139.857 356.855L140.036 356.735L138.926 355.071L138.747 355.191L139.857 356.855ZM136.747 350.059V355.191H138.747V350.059H136.747ZM138.212 338.767L136.756 349.93L138.739 350.188L140.195 339.026L138.212 338.767ZM144.791 330.413C142.66 333.428 140.067 336.293 138.771 337.619L140.201 339.017C141.546 337.642 144.214 334.694 146.424 331.567L144.791 330.413ZM171.117 329.559H146.434V331.559H171.117V329.559ZM181.029 320.881C180.367 325.849 176.129 329.559 171.117 329.559V331.559C177.131 331.559 182.217 327.107 183.011 321.145L181.029 320.881ZM182.558 309.414L181.029 320.881L183.011 321.145L184.54 309.678L182.558 309.414ZM185.247 307.059C183.888 307.059 182.738 308.066 182.558 309.414L184.54 309.678C184.588 309.324 184.89 309.059 185.247 309.059V307.059ZM187.937 309.414C187.757 308.066 186.607 307.059 185.247 307.059V309.059C185.605 309.059 185.907 309.324 185.954 309.678L187.937 309.414ZM189.466 320.881L187.937 309.414L185.954 309.678L187.483 321.145L189.466 320.881ZM190.687 324.509C190.066 323.418 189.641 322.194 189.466 320.881L187.483 321.145C187.693 322.719 188.203 324.189 188.95 325.5L190.687 324.509ZM184.15 330.756C187.795 329.141 189.701 327.691 190.578 326.6L189.019 325.348C188.437 326.072 186.873 327.362 183.34 328.928L184.15 330.756ZM176.356 338.37C176.952 336.551 177.941 334.231 179.138 332.568C179.739 331.733 180.34 331.137 180.904 330.824C181.428 330.533 181.887 330.496 182.365 330.708L183.178 328.881C182.028 328.369 180.905 328.536 179.933 329.076C179.002 329.593 178.195 330.455 177.514 331.4C176.148 333.299 175.082 335.835 174.455 337.747L176.356 338.37ZM177.04 339.852C177.209 339.684 177.416 339.626 177.568 339.623C177.635 339.622 177.684 339.631 177.711 339.637C177.726 339.641 177.736 339.644 177.742 339.646C177.749 339.648 177.752 339.65 177.752 339.65C177.753 339.65 177.751 339.649 177.746 339.647C177.741 339.644 177.735 339.641 177.726 339.636C177.709 339.627 177.686 339.613 177.658 339.594C177.6 339.556 177.53 339.503 177.447 339.435C177.105 339.153 176.692 338.719 176.342 338.312L174.826 339.617C175.204 340.055 175.702 340.589 176.174 340.978C176.402 341.165 176.684 341.371 176.983 341.496C177.224 341.596 177.91 341.811 178.455 341.266L177.04 339.852ZM179.473 337.891C178.786 338.41 177.47 339.422 177.04 339.852L178.455 341.266C178.761 340.959 179.935 340.048 180.678 339.486L179.473 337.891ZM185.825 339.935C185.235 338.656 184.182 337.98 183.136 337.671C182.114 337.368 181.058 337.397 180.286 337.532L180.631 339.502C181.183 339.406 181.914 339.394 182.568 339.588C183.199 339.775 183.714 340.134 184.009 340.773L185.825 339.935ZM174.558 350.645C175.499 349.342 177.069 347.461 178.855 345.829C180.675 344.167 182.575 342.9 184.181 342.604L183.819 340.638C181.629 341.041 179.376 342.644 177.506 344.352C175.602 346.091 173.944 348.079 172.937 349.474L174.558 350.645ZM173.955 352.69C173.509 352.734 173.527 352.615 173.628 352.723C173.722 352.822 173.647 352.863 173.68 352.602C173.748 352.077 174.14 351.273 174.579 350.614L172.915 349.504C172.436 350.223 171.825 351.346 171.697 352.347C171.632 352.849 171.662 353.552 172.173 354.094C172.691 354.645 173.441 354.75 174.151 354.681L173.955 352.69ZM188.462 345.725C187.424 345.078 186.032 345.01 184.688 345.195C183.306 345.386 181.791 345.871 180.355 346.543C178.918 347.215 177.52 348.093 176.385 349.1C175.262 350.095 174.324 351.28 173.93 352.582L175.844 353.162C176.088 352.354 176.731 351.466 177.711 350.596C178.679 349.738 179.908 348.96 181.202 348.354C182.498 347.748 183.82 347.334 184.962 347.176C186.142 347.013 186.961 347.146 187.404 347.422L188.462 345.725ZM196.77 349.184C196.051 348.187 195.05 347.143 193.843 346.464C192.619 345.775 191.131 345.442 189.558 346.006L190.233 347.889C191.126 347.569 192.005 347.725 192.863 348.207C193.739 348.7 194.538 349.509 195.149 350.355L196.77 349.184ZM180.512 353.045L195.297 352.149L195.176 350.152L180.391 351.049L180.512 353.045ZM179.339 354.484C179.56 353.805 180.149 353.273 180.58 353.017L179.558 351.297C178.89 351.694 177.861 352.558 177.437 353.867L179.339 354.484ZM203.188 353.367C200.177 354.278 192.185 355.466 179.245 354.158L179.044 356.148C192.145 357.472 200.422 356.293 203.767 355.281L203.188 353.367ZM199.172 331.92L203.116 353.435L205.083 353.074L201.139 331.559L199.172 331.92ZM216.992 329.559H201.139V331.559H216.992V329.559ZM211.622 333.559H216.992V331.559H211.622V333.559ZM208.355 357.826L211.622 333.559L209.64 333.292L206.373 357.559L208.355 357.826ZM197.924 359.559H206.373V357.559H197.924V359.559ZM195.398 365.876L197.924 359.559L196.068 358.816L193.541 365.133L195.398 365.876ZM177.029 369.033L193.768 367.12L193.541 365.133L176.802 367.046L177.029 369.033ZM167.629 373.559L177.029 369.033L176.161 367.231L166.762 371.757L167.629 373.559ZM253.028 373.559H167.629V375.559H253.028V373.559ZM251.254 356.921C251.346 362.914 252.362 369.836 253.036 373.542L255.004 373.185C254.338 369.524 253.344 362.725 253.254 356.89L251.254 356.921ZM253.54 346.266C254.232 346.958 254.97 347.808 255.569 348.71C256.175 349.622 256.598 350.527 256.732 351.335C256.861 352.11 256.725 352.759 256.249 353.313C255.741 353.905 254.738 354.515 252.867 354.923L253.294 356.877C255.378 356.422 256.861 355.671 257.767 354.616C258.705 353.523 258.91 352.239 258.705 351.007C258.505 349.808 257.919 348.633 257.235 347.604C256.545 346.564 255.714 345.612 254.955 344.852L253.54 346.266ZM254.584 331.305C253.821 333.361 252.909 336.335 252.479 339.11C252.264 340.496 252.162 341.875 252.278 343.086C252.391 344.273 252.728 345.454 253.54 346.266L254.955 344.852C254.626 344.523 254.364 343.9 254.268 342.896C254.175 341.916 254.253 340.718 254.455 339.417C254.858 336.818 255.724 333.981 256.459 332.001L254.584 331.305ZM334.947 325.19L256.323 330.022L256.446 332.018L335.069 327.186L334.947 325.19ZM256.889 316.087C267.103 316.518 308.056 321.671 334.959 325.205L335.22 323.222C308.378 319.696 267.301 314.525 256.974 314.089L256.889 316.087ZM251.704 297.317C253.281 301.085 255.511 308.231 254.926 313.762L256.915 313.972C257.555 307.919 255.155 300.383 253.549 296.545L251.704 297.317ZM320.165 260.106L252.64 294.734L253.553 296.514L321.077 261.885L320.165 260.106ZM248.712 280.726C259.357 278.013 295.856 267.303 320.168 260.097L319.6 258.179C295.265 265.392 258.816 276.087 248.218 278.788L248.712 280.726ZM233.48 261.278C235.552 263.685 238.379 267.14 240.857 270.52C243.367 273.944 245.417 277.158 246.058 279.129L247.96 278.51C247.205 276.188 244.954 272.727 242.47 269.338C239.953 265.905 237.092 262.409 234.996 259.973L233.48 261.278ZM274.682 194.633L233.313 258.886L234.995 259.969L276.363 195.716L274.682 194.633ZM220.065 251.61C237.55 232.803 260.726 208.908 274.698 194.643L273.269 193.244C259.294 207.512 236.104 231.422 218.6 250.248L220.065 251.61ZM194.79 245.166C197.765 245.687 202.149 246.596 206.454 247.777C210.785 248.965 214.935 250.401 217.507 251.949L218.538 250.236C215.713 248.535 211.333 247.041 206.983 245.848C202.606 244.647 198.159 243.725 195.134 243.196L194.79 245.166ZM181.13 162.005L193.152 243.484L195.13 243.192L183.109 161.713L181.13 162.005ZM177.749 243.111C177.807 221.81 179.772 184.627 181.154 161.991L179.158 161.869C177.776 184.5 175.807 221.738 175.749 243.106L177.749 243.111ZM150.954 253.462C155.346 250.651 165.391 245.727 175.842 245.103L175.723 243.106C164.809 243.758 154.432 248.861 149.876 251.777L150.954 253.462ZM84.5603 192.786L148.476 253.233L149.85 251.78L85.9346 191.333L84.5603 192.786ZM136.326 263.437C115.442 233.881 102.712 215.729 95.2873 205.05C91.5744 199.709 89.1898 196.24 87.7758 194.149C87.0675 193.102 86.6076 192.408 86.3469 191.999C86.2111 191.785 86.1468 191.677 86.127 191.64C86.1225 191.631 86.1312 191.647 86.1436 191.676C86.1494 191.69 86.1643 191.726 86.1784 191.776C86.1845 191.798 86.2301 191.948 86.2092 192.145C86.1978 192.252 86.158 192.461 85.9952 192.663C85.8088 192.895 85.5511 193.008 85.3145 193.032C85.1117 193.051 84.9548 193.004 84.8813 192.978C84.7994 192.948 84.7387 192.914 84.7053 192.894C84.6392 192.854 84.5943 192.815 84.5794 192.802C84.5596 192.785 84.5459 192.772 84.5403 192.766L85.9545 191.352C85.9422 191.34 85.8603 191.255 85.742 191.183C85.7059 191.161 85.6427 191.126 85.5587 191.096C85.4832 191.069 85.3244 191.021 85.1201 191.041C84.8821 191.064 84.6232 191.178 84.436 191.411C84.2723 191.615 84.2319 191.825 84.2204 191.934C84.1991 192.134 84.2454 192.291 84.2538 192.32C84.2701 192.378 84.2884 192.424 84.299 192.449C84.321 192.501 84.3446 192.547 84.3605 192.577C84.4225 192.694 84.5277 192.865 84.6603 193.073C84.9366 193.507 85.4095 194.221 86.119 195.27C87.5405 197.372 89.9309 200.849 93.6452 206.191C101.074 216.877 113.807 235.034 134.692 264.591L136.326 263.437ZM123.52 279.749C124.49 277.884 126.11 275.267 128.199 272.757C130.293 270.24 132.811 267.886 135.565 266.475L134.654 264.695C131.566 266.276 128.845 268.852 126.661 271.478C124.471 274.111 122.773 276.85 121.746 278.827L123.52 279.749ZM53.0839 259.824L121.129 280.761L121.717 278.85L53.672 257.913L53.0839 259.824ZM116.155 294.864L53.0839 259.824L52.1126 261.573L115.184 296.612L116.155 294.864ZM115.325 314.376L117.173 296.821L115.184 296.612L113.336 314.166L115.325 314.376ZM41 325.333L113.587 316.151L113.336 314.166L40.749 323.349L41 325.333ZM113.174 330.05C101.906 329.871 65.076 327.188 40.998 325.322L40.8434 327.316C64.8862 329.18 101.797 331.87 113.142 332.049L113.174 330.05ZM120.945 359.568C119.814 356.492 118.279 351.728 117.072 346.677C115.861 341.609 115.001 336.329 115.175 332.191L113.177 332.107C112.991 336.526 113.904 342.021 115.127 347.142C116.354 352.279 117.913 357.119 119.068 360.258L120.945 359.568ZM125.129 359.559H120.938V361.559H125.129V359.559ZM123.447 369.397L126.918 362.454L125.129 361.559L121.658 368.502L123.447 369.397ZM211.43 296.838L189.972 284.123L188.953 285.843L210.411 298.559L211.43 296.838ZM187.448 284.526L184.664 287.707L186.17 289.024L188.953 285.843L187.448 284.526ZM184.663 287.708C179.381 289.643 172.507 292.806 165.958 296.94L167.025 298.631C173.442 294.581 180.186 291.478 185.351 289.586L184.663 287.708ZM167.022 300.559H210.411V298.559H167.022V300.559ZM145.236 299.974C153.541 291.698 163.75 284.512 174.389 283.111L174.128 281.128C162.834 282.615 152.234 290.177 143.824 298.557L145.236 299.974ZM175.859 282.15C178.738 277.344 179.898 275.279 180.238 274.563L178.432 273.705C178.142 274.314 177.042 276.283 174.143 281.122L175.859 282.15ZM178.684 274.893L185.233 280.506L186.534 278.988L179.986 273.375L178.684 274.893ZM186.903 280.954L193.954 279.631L193.586 277.666L186.534 278.988L186.903 280.954ZM193.954 279.631L196.49 281.85L197.807 280.345L195.271 278.126L193.954 279.631ZM199.686 281.028L200.101 279.889L198.221 279.206L197.807 280.345L199.686 281.028ZM200.101 279.889L201.083 283.574L203.016 283.059L202.033 279.374L200.101 279.889ZM203.016 285.059H206.04V283.059H203.016V285.059ZM207.168 283.412L207.684 285.862L209.641 285.45L209.125 283L207.168 283.412ZM208.567 287.125L211.026 288.662L212.086 286.966L209.627 285.429L208.567 287.125ZM213.31 287.202L213.638 288.675L215.59 288.241L215.263 286.768L213.31 287.202ZM215.155 290.16L215.785 290.286L216.177 288.325L215.547 288.199L215.155 290.16ZM218.174 288.214L218.105 286.96L216.108 287.071L216.177 288.325L218.174 288.214ZM217.94 286.993L218.337 288.129L220.225 287.468L219.828 286.332L217.94 286.993ZM220.875 287.881L221.226 288.525L222.982 287.568L222.631 286.924L220.875 287.881ZM224.747 287.628V287.295H222.747V287.628H224.747ZM224.646 287.317L225.103 288.288L226.912 287.436L226.456 286.466L224.646 287.317ZM227.987 287.584L229.643 289.655L231.205 288.405L229.548 286.334L227.987 287.584ZM232.519 287.903C228.918 280.78 220.362 271.392 207.313 270.14L207.122 272.131C219.269 273.296 227.328 282.068 230.734 288.805L232.519 287.903ZM207.277 270.12C207.411 265.847 207.509 262.795 207.58 260.652L205.581 260.586C205.51 262.73 205.412 265.783 205.278 270.057L207.277 270.12ZM204.103 260.004C203.319 262.573 202.654 265.874 202.703 269.391L204.702 269.363C204.657 266.104 205.275 263.014 206.016 260.589L204.103 260.004ZM202.667 269.443C199.347 269.11 197.239 268.973 195.95 268.941C195.31 268.924 194.846 268.933 194.526 268.962C194.375 268.976 194.207 268.998 194.054 269.043C193.985 269.063 193.85 269.107 193.711 269.199C193.594 269.278 193.247 269.55 193.247 270.059H195.247C195.247 270.548 194.914 270.801 194.825 270.861C194.715 270.935 194.623 270.96 194.613 270.963C194.579 270.973 194.596 270.964 194.707 270.954C194.913 270.936 195.287 270.925 195.9 270.94C197.116 270.97 199.168 271.102 202.468 271.433L202.667 269.443ZM195.244 269.978L194.741 263.771L192.747 263.933L193.251 270.14L195.244 269.978ZM190.754 263.771L190.33 269L192.324 269.161L192.747 263.933L190.754 263.771ZM190.321 269.005C187.712 268.869 183.407 268.735 180.655 268.956L180.815 270.95C183.422 270.74 187.609 270.866 190.217 271.002L190.321 269.005ZM180.591 268.928C180.232 266.516 179.902 264.319 179.602 262.344L177.625 262.644C177.924 264.617 178.254 266.812 178.612 269.222L180.591 268.928ZM175.747 262.642V269.624H177.747V262.642H175.747ZM175.736 269.631C173.338 269.823 169.45 270.236 167.25 270.843L167.782 272.771C169.773 272.222 173.479 271.818 175.896 271.625L175.736 269.631ZM167.087 270.799C166.569 270.096 166.096 269.583 165.631 269.345C165.382 269.218 164.958 269.081 164.504 269.278C164.053 269.474 163.876 269.866 163.811 270.09L165.732 270.647C165.714 270.71 165.62 270.975 165.3 271.113C164.976 271.254 164.731 271.131 164.72 271.125C164.701 271.116 164.761 271.145 164.909 271.296C165.049 271.439 165.237 271.659 165.477 271.985L167.087 270.799ZM163.747 270.366L163.002 272.23L164.859 272.973L165.604 271.109L163.747 270.366ZM162.997 272.236C151.934 275.555 129.409 289.304 122.872 319.373L124.826 319.798C131.176 290.592 153.042 277.311 163.571 274.152L162.997 272.236ZM123.277 321.063C124.371 322.399 125.052 323.228 125.451 323.709L126.991 322.433C126.596 321.956 125.918 321.132 124.825 319.797L123.277 321.063ZM125.807 322.161L120.854 324.412L121.682 326.233L126.635 323.981L125.807 322.161ZM119.693 326.023L117.784 344.164L119.773 344.373L121.682 326.233L119.693 326.023ZM117.984 345.268L118.581 346.462L120.37 345.567L119.773 344.373L117.984 345.268ZM122.363 346.034C123.279 342.36 124.608 337.955 126.199 334.216C126.996 332.345 127.847 330.668 128.73 329.34C129.626 327.993 130.494 327.099 131.291 326.675L130.351 324.909C129.12 325.564 128.028 326.784 127.065 328.232C126.089 329.699 125.182 331.498 124.359 333.432C122.712 337.302 121.353 341.817 120.422 345.55L122.363 346.034ZM131.323 321.895L129.247 321.664L129.027 323.652L131.102 323.882L131.323 321.895ZM129.247 321.664V320.33H127.247V321.664H129.247ZM129.246 320.334C129.995 319.068 130.885 317.657 131.904 316.146L130.246 315.028C129.207 316.569 128.295 318.013 127.524 319.316L129.246 320.334ZM132.247 315.025V310.559H130.247V315.025H132.247ZM132.247 310.559C132.247 305.036 136.725 300.559 142.247 300.559V298.559C135.62 298.559 130.247 303.932 130.247 310.559H132.247ZM142.247 300.559H143.821V298.559H142.247V300.559ZM125.451 323.709C125.646 323.944 125.777 324.101 125.856 324.193C125.89 324.233 125.929 324.278 125.96 324.312C125.968 324.319 125.988 324.341 126.014 324.365C126.024 324.375 126.057 324.405 126.102 324.438C126.122 324.454 126.172 324.49 126.241 324.525C126.262 324.536 126.493 324.666 126.811 324.63C127.016 324.607 127.263 324.513 127.456 324.291C127.632 324.087 127.68 323.868 127.694 323.742C127.717 323.52 127.658 323.35 127.649 323.322C127.616 323.223 127.574 323.151 127.569 323.142C127.546 323.1 127.523 323.068 127.518 323.061C127.458 322.973 127.239 322.698 127.047 322.457L125.485 323.706C125.589 323.837 125.686 323.959 125.761 324.053C125.848 324.164 125.876 324.202 125.87 324.193C125.869 324.192 125.85 324.164 125.828 324.126C125.824 324.118 125.782 324.047 125.75 323.949C125.741 323.922 125.681 323.753 125.705 323.531C125.718 323.405 125.767 323.186 125.943 322.982C126.135 322.76 126.383 322.666 126.588 322.643C126.905 322.607 127.136 322.737 127.157 322.747C127.225 322.783 127.275 322.818 127.295 322.833C127.339 322.866 127.37 322.895 127.379 322.903C127.401 322.924 127.417 322.941 127.418 322.942C127.424 322.949 127.416 322.94 127.377 322.894C127.308 322.814 127.186 322.668 126.991 322.433L125.451 323.709ZM180.238 274.563C180.282 274.471 180.324 274.377 180.356 274.29C180.371 274.249 180.393 274.183 180.41 274.105C180.418 274.066 180.43 274.002 180.433 273.923C180.436 273.858 180.438 273.703 180.371 273.523C180.294 273.313 180.107 273.04 179.754 272.918C179.45 272.814 179.194 272.884 179.089 272.921C178.888 272.992 178.757 273.112 178.735 273.131C178.65 273.207 178.58 273.291 178.542 273.337L180.094 274.599C180.121 274.565 180.105 274.59 180.059 274.631C180.057 274.632 179.942 274.741 179.753 274.808C179.654 274.843 179.403 274.913 179.103 274.81C178.754 274.689 178.57 274.42 178.495 274.215C178.43 274.039 178.433 273.892 178.435 273.835C178.438 273.766 178.448 273.713 178.454 273.687C178.46 273.658 178.466 273.637 178.47 273.626C178.473 273.614 178.476 273.607 178.476 273.605C178.477 273.605 178.466 273.633 178.432 273.705L180.238 274.563ZM178.542 273.337C178.143 273.829 178.244 274.516 178.684 274.893L179.986 273.375C180.328 273.668 180.412 274.208 180.094 274.599L178.542 273.337ZM127.047 322.457C126.753 322.089 126.243 321.962 125.807 322.161L126.635 323.981C126.23 324.165 125.757 324.047 125.485 323.706L127.047 322.457ZM131.904 316.146C132.127 315.816 132.247 315.426 132.247 315.025H130.247C130.247 315.024 130.248 315.025 130.246 315.028L131.904 316.146ZM129.247 320.33C129.247 320.329 129.248 320.331 129.246 320.334L127.524 319.316C127.341 319.625 127.247 319.976 127.247 320.33H129.247ZM129.247 321.664H127.247C127.247 322.683 128.014 323.539 129.027 323.652L129.247 321.664ZM132.906 323.137C132.661 322.496 132.075 321.978 131.323 321.895L131.102 323.882C131.073 323.879 131.054 323.868 131.046 323.861C131.04 323.856 131.039 323.853 131.039 323.853L132.906 323.137ZM131.291 326.675C131.86 326.372 132.345 325.818 132.648 325.259C132.937 324.728 133.205 323.916 132.906 323.137L131.039 323.853C131.028 323.825 131.045 323.845 131.028 323.941C131.012 324.035 130.968 324.162 130.89 324.306C130.723 324.615 130.489 324.836 130.351 324.909L131.291 326.675ZM118.581 346.462C119.431 348.163 121.916 347.824 122.363 346.034L120.422 345.55C120.42 345.561 120.417 345.564 120.418 345.563C120.418 345.562 120.419 345.562 120.419 345.561C120.42 345.561 120.42 345.56 120.42 345.561C120.419 345.561 120.409 345.568 120.39 345.571C120.371 345.573 120.363 345.568 120.366 345.57C120.368 345.571 120.371 345.573 120.374 345.575C120.377 345.578 120.375 345.577 120.37 345.567L118.581 346.462ZM202.703 269.391C202.703 269.407 202.697 269.422 202.684 269.434C202.678 269.44 202.673 269.442 202.672 269.443C202.671 269.443 202.671 269.443 202.667 269.443L202.468 271.433C203.702 271.557 204.719 270.554 204.702 269.363L202.703 269.391ZM207.58 260.652C207.612 259.695 207.039 258.884 206.163 258.694C205.248 258.496 204.393 259.056 204.103 260.004L206.016 260.589C206.036 260.525 206.042 260.563 205.971 260.608C205.902 260.651 205.815 260.665 205.739 260.648C205.665 260.632 205.617 260.593 205.593 260.559C205.566 260.522 205.584 260.517 205.581 260.586L207.58 260.652ZM207.313 270.14C207.3 270.139 207.289 270.133 207.281 270.125C207.28 270.123 207.279 270.121 207.278 270.12C207.277 270.119 207.277 270.119 207.277 270.119C207.277 270.119 207.277 270.118 207.277 270.118C207.277 270.118 207.277 270.118 207.277 270.118C207.277 270.118 207.277 270.118 207.277 270.118C207.277 270.118 207.277 270.118 207.277 270.119C207.277 270.119 207.277 270.119 207.277 270.119C207.277 270.12 207.277 270.121 207.277 270.12L205.278 270.057C205.244 271.148 206.083 272.032 207.122 272.131L207.313 270.14ZM229.643 289.655C230.195 290.345 231.128 290.691 231.943 290.238C232.336 290.02 232.615 289.644 232.713 289.193C232.81 288.749 232.72 288.301 232.519 287.903L230.734 288.805C230.774 288.885 230.738 288.864 230.759 288.767C230.782 288.664 230.856 288.554 230.972 288.49C231.082 288.428 231.181 288.434 231.23 288.448C231.279 288.462 231.261 288.475 231.205 288.405L229.643 289.655ZM228.431 287.408C228.434 287.449 228.423 287.511 228.384 287.568C228.351 287.618 228.309 287.646 228.274 287.66C228.238 287.674 228.188 287.682 228.13 287.668C228.063 287.653 228.012 287.616 227.987 287.584L229.548 286.334C228.472 284.989 226.305 285.844 226.437 287.562L228.431 287.408ZM225.103 288.288C225.931 290.047 228.58 289.347 228.431 287.408L226.437 287.562C226.434 287.525 226.447 287.454 226.497 287.389C226.54 287.334 226.588 287.31 226.622 287.301C226.657 287.292 226.711 287.288 226.775 287.315C226.851 287.347 226.897 287.403 226.912 287.436L225.103 288.288ZM224.747 287.295C224.747 287.283 224.749 287.286 224.745 287.298C224.741 287.309 224.734 287.321 224.725 287.33C224.71 287.348 224.701 287.348 224.706 287.347C224.711 287.345 224.703 287.349 224.681 287.34C224.67 287.335 224.659 287.327 224.65 287.319C224.641 287.31 224.641 287.307 224.646 287.317L226.456 286.466C225.57 284.584 222.747 285.215 222.747 287.295H224.747ZM221.226 288.525C222.157 290.231 224.747 289.57 224.747 287.628H222.747C222.747 287.628 222.748 287.617 222.754 287.598C222.761 287.579 222.771 287.562 222.784 287.547C222.808 287.518 222.83 287.509 222.842 287.506C222.853 287.504 222.877 287.501 222.911 287.514C222.93 287.521 222.947 287.532 222.962 287.545C222.977 287.558 222.983 287.568 222.982 287.568L221.226 288.525ZM221.534 287.748C221.499 288.092 221.041 288.185 220.875 287.881L222.631 286.924C221.854 285.5 219.705 285.935 219.543 287.549L221.534 287.748ZM218.337 288.129C218.92 289.794 221.358 289.503 221.534 287.748L219.543 287.549C219.55 287.484 219.586 287.397 219.658 287.329C219.723 287.268 219.793 287.242 219.852 287.235C219.91 287.228 219.985 287.237 220.062 287.281C220.148 287.33 220.203 287.406 220.225 287.468L218.337 288.129ZM218.105 286.96C218.104 286.948 218.106 286.954 218.1 286.971C218.094 286.989 218.084 287.006 218.072 287.021C218.061 287.034 218.05 287.042 218.045 287.045C218.039 287.048 218.037 287.048 218.036 287.048C218.036 287.048 218.033 287.049 218.027 287.048C218.021 287.047 218.009 287.045 217.993 287.036C217.976 287.028 217.96 287.015 217.948 287.001C217.936 286.987 217.936 286.981 217.94 286.993L219.828 286.332C219.095 284.239 215.985 284.857 216.108 287.071L218.105 286.96ZM215.785 290.286C217.067 290.543 218.247 289.52 218.174 288.214L216.177 288.325L215.785 290.286ZM213.638 288.675C213.805 289.427 214.4 290.009 215.155 290.16L215.547 288.199C215.568 288.203 215.585 288.22 215.59 288.241L213.638 288.675ZM213.747 287.154C213.747 287.177 213.732 287.248 213.672 287.309C213.623 287.358 213.576 287.371 213.55 287.374C213.524 287.377 213.476 287.374 213.418 287.337C213.346 287.29 213.315 287.225 213.31 287.202L215.263 286.768C214.802 284.693 211.747 285.028 211.747 287.154H213.747ZM211.026 288.662C212.211 289.403 213.747 288.551 213.747 287.154H211.747C211.747 286.98 211.939 286.874 212.086 286.966L211.026 288.662ZM207.684 285.862C207.794 286.386 208.113 286.842 208.567 287.125L209.627 285.429C209.634 285.434 209.639 285.441 209.641 285.45L207.684 285.862ZM207.747 283.352C207.747 283.396 207.724 283.484 207.651 283.558C207.591 283.619 207.527 283.638 207.485 283.643C207.443 283.647 207.377 283.641 207.305 283.594C207.218 283.537 207.177 283.456 207.168 283.412L209.125 283C208.703 280.992 205.747 281.3 205.747 283.352H207.747ZM206.04 285.059C206.983 285.059 207.747 284.295 207.747 283.352H205.747C205.747 283.19 205.878 283.059 206.04 283.059V285.059ZM201.083 283.574C201.317 284.45 202.11 285.059 203.016 285.059V283.059L201.083 283.574ZM200.101 279.889L202.033 279.374C201.529 277.483 198.89 277.367 198.221 279.206L200.101 279.889ZM196.49 281.85C197.548 282.776 199.206 282.349 199.686 281.028L197.807 280.345L196.49 281.85ZM193.954 279.631L195.271 278.126C194.81 277.722 194.189 277.553 193.586 277.666L193.954 279.631ZM185.233 280.506C185.693 280.901 186.307 281.065 186.903 280.954L186.534 278.988L185.233 280.506ZM174.389 283.111C174.992 283.031 175.539 282.684 175.859 282.15L174.143 281.122C174.144 281.121 174.144 281.122 174.141 281.123C174.138 281.125 174.134 281.127 174.128 281.128L174.389 283.111ZM143.824 298.557C143.823 298.558 143.822 298.559 143.821 298.559C143.821 298.559 143.821 298.559 143.821 298.559V300.559C144.353 300.559 144.861 300.347 145.236 299.974L143.824 298.557ZM165.958 296.94C164.235 298.028 165.09 300.559 167.022 300.559V298.559C167.006 298.559 167.003 298.557 167.007 298.558C167.011 298.56 167.017 298.563 167.022 298.567C167.028 298.571 167.031 298.575 167.032 298.577C167.034 298.579 167.034 298.58 167.034 298.581C167.034 298.582 167.035 298.584 167.035 298.588C167.035 298.593 167.034 298.601 167.031 298.611C167.027 298.621 167.022 298.63 167.017 298.636C167.012 298.642 167.012 298.639 167.025 298.631L165.958 296.94ZM184.664 287.707C184.664 287.708 184.663 287.708 184.664 287.707C184.664 287.707 184.664 287.707 184.663 287.708L185.351 289.586C185.668 289.47 185.948 289.277 186.17 289.024L184.664 287.707ZM189.972 284.123C189.143 283.631 188.082 283.801 187.448 284.526L188.953 285.843L189.972 284.123ZM210.411 298.559V300.559C212.445 300.559 213.181 297.876 211.43 296.838L210.411 298.559ZM125.129 361.559V361.559L126.918 362.454C127.583 361.124 126.616 359.559 125.129 359.559V361.559ZM119.068 360.258C119.359 361.049 120.11 361.559 120.938 361.559V359.559C120.937 359.559 120.937 359.559 120.939 359.56C120.94 359.56 120.941 359.561 120.942 359.563C120.944 359.565 120.945 359.567 120.945 359.568L119.068 360.258ZM113.142 332.049C113.147 332.05 113.149 332.05 113.15 332.051C113.152 332.052 113.156 332.054 113.161 332.059C113.171 332.07 113.178 332.086 113.177 332.107L115.175 332.191C115.222 331.066 114.349 330.068 113.174 330.05L113.142 332.049ZM40.749 323.349C38.3732 323.65 38.4309 327.129 40.8434 327.316L40.998 325.322C40.9828 325.321 40.9741 325.319 40.9708 325.318C40.9675 325.317 40.9682 325.317 40.9715 325.318C40.9748 325.32 40.9793 325.323 40.9841 325.327C40.9889 325.33 40.993 325.334 40.9963 325.338C41.0028 325.346 41.0039 325.35 41.003 325.347C41.002 325.345 41.0002 325.338 41 325.329C40.9998 325.319 41.0013 325.312 41.0022 325.309C41.0031 325.307 41.0023 325.311 40.9963 325.318C40.9934 325.322 40.9896 325.326 40.9851 325.33C40.9806 325.334 40.9764 325.336 40.9733 325.338C40.9702 325.34 40.9696 325.34 40.9729 325.339C40.9763 325.338 40.9849 325.335 41 325.333L40.749 323.349ZM113.336 314.166H113.336L113.587 316.151C114.508 316.034 115.228 315.299 115.325 314.376L113.336 314.166ZM115.184 296.612L117.173 296.821C117.257 296.024 116.856 295.253 116.155 294.864L115.184 296.612ZM53.672 257.913C51.3762 257.206 50.0128 260.406 52.1126 261.573L53.0839 259.824C53.0709 259.817 53.0641 259.812 53.0616 259.81C53.0592 259.808 53.0598 259.808 53.0622 259.811C53.0645 259.814 53.0674 259.818 53.0701 259.823C53.0728 259.828 53.0747 259.833 53.076 259.838C53.0786 259.847 53.0777 259.85 53.078 259.846C53.0783 259.842 53.0797 259.834 53.0839 259.824C53.088 259.815 53.0928 259.808 53.0955 259.805C53.098 259.802 53.0963 259.805 53.0882 259.809C53.0841 259.811 53.0791 259.813 53.0735 259.815C53.0678 259.817 53.0628 259.818 53.0591 259.818C53.0554 259.818 53.0548 259.818 53.0579 259.818C53.0611 259.819 53.0697 259.82 53.0839 259.824L53.672 257.913ZM121.746 278.827C121.74 278.838 121.732 278.845 121.724 278.848C121.72 278.85 121.718 278.85 121.718 278.85C121.718 278.85 121.718 278.85 121.718 278.85C121.718 278.85 121.718 278.85 121.717 278.85L121.129 280.761C122.083 281.055 123.078 280.6 123.52 279.749L121.746 278.827ZM253.549 296.545C253.547 296.539 253.546 296.535 253.546 296.531C253.546 296.527 253.547 296.523 253.548 296.52C253.549 296.516 253.551 296.515 253.551 296.515C253.551 296.515 253.551 296.515 253.551 296.515C253.551 296.515 253.551 296.515 253.551 296.515C253.551 296.515 253.551 296.515 253.551 296.514C253.551 296.514 253.552 296.514 253.553 296.514L252.64 294.734C251.687 295.223 251.302 296.356 251.704 297.317L253.549 296.545ZM256.974 314.089C256.966 314.089 256.963 314.088 256.961 314.086C256.957 314.084 256.95 314.08 256.942 314.069C256.923 314.047 256.911 314.012 256.915 313.972L254.926 313.762C254.805 314.905 255.635 316.034 256.889 316.087L256.974 314.089ZM335.069 327.186C336.264 327.113 336.913 326.168 336.951 325.274C336.988 324.377 336.413 323.379 335.22 323.222L334.959 325.205C334.975 325.207 334.983 325.209 334.987 325.21C334.99 325.211 334.989 325.211 334.985 325.209C334.981 325.207 334.977 325.204 334.971 325.199C334.966 325.195 334.962 325.19 334.958 325.186C334.952 325.177 334.95 325.171 334.951 325.173C334.951 325.175 334.953 325.181 334.952 325.19C334.952 325.2 334.95 325.207 334.949 325.21C334.947 325.213 334.948 325.21 334.954 325.203C334.957 325.2 334.961 325.197 334.965 325.193C334.969 325.19 334.973 325.188 334.976 325.186C334.979 325.185 334.979 325.185 334.975 325.186C334.972 325.187 334.962 325.189 334.947 325.19L335.069 327.186ZM256.459 332.001C256.458 332.004 256.456 332.007 256.454 332.01C256.451 332.013 256.449 332.015 256.447 332.016C256.444 332.019 256.443 332.018 256.446 332.018L256.323 330.022C255.553 330.069 254.861 330.557 254.584 331.305L256.459 332.001ZM253.254 356.89C253.254 356.893 253.253 356.896 253.252 356.9C253.251 356.902 253.251 356.902 253.253 356.899C253.259 356.892 253.273 356.881 253.294 356.877L252.867 354.923C251.967 355.119 251.239 355.914 251.254 356.921L253.254 356.89ZM253.028 375.559C254.29 375.559 255.227 374.412 255.004 373.185L253.036 373.542C253.037 373.546 253.037 373.548 253.037 373.548C253.037 373.549 253.037 373.549 253.037 373.549C253.036 373.551 253.035 373.553 253.033 373.556C253.031 373.559 253.029 373.56 253.029 373.559C253.03 373.559 253.03 373.559 253.031 373.559C253.031 373.559 253.03 373.559 253.028 373.559V375.559ZM166.762 371.757C164.846 372.68 165.503 375.559 167.629 375.559V373.559L166.762 371.757ZM176.802 367.046C176.579 367.072 176.363 367.134 176.161 367.231L177.029 369.033L176.802 367.046ZM193.541 365.133L193.768 367.12C194.499 367.037 195.124 366.559 195.398 365.876L193.541 365.133ZM197.924 357.559C197.107 357.559 196.371 358.057 196.068 358.816L197.924 359.559V357.559ZM206.373 357.559V359.559C207.374 359.559 208.222 358.818 208.355 357.826L206.373 357.559ZM211.622 331.559C210.62 331.559 209.773 332.3 209.64 333.292L211.622 333.559V331.559ZM216.992 331.559V333.559C218.542 333.559 219.503 331.873 218.713 330.539L216.992 331.559ZM216.992 331.559L218.713 330.539C218.353 329.932 217.699 329.559 216.992 329.559V331.559ZM180.678 339.486C180.683 339.483 180.667 339.496 180.631 339.502L180.286 337.532C179.969 337.588 179.695 337.723 179.473 337.891L180.678 339.486ZM174.455 337.747C174.245 338.388 174.379 339.097 174.826 339.617L176.342 338.312C176.349 338.32 176.355 338.331 176.357 338.343C176.359 338.354 176.358 338.364 176.356 338.37L174.455 337.747ZM183.34 328.928C183.357 328.92 183.358 328.926 183.329 328.924C183.297 328.922 183.244 328.911 183.178 328.881L182.365 330.708C182.832 330.916 183.497 331.046 184.15 330.756L183.34 328.928ZM188.95 325.5C188.964 325.524 188.958 325.529 188.958 325.505C188.958 325.491 188.96 325.467 188.97 325.437C188.98 325.406 188.997 325.375 189.019 325.348L190.578 326.6C191.137 325.905 190.997 325.052 190.687 324.509L188.95 325.5ZM134.692 264.591C134.695 264.594 134.696 264.597 134.697 264.602C134.698 264.609 134.698 264.622 134.694 264.637C134.685 264.671 134.667 264.688 134.654 264.695L135.565 266.475C136.659 265.915 137.06 264.477 136.326 263.437L134.692 264.591ZM120.854 324.412C120.209 324.705 119.767 325.318 119.693 326.023L121.682 326.233L120.854 324.412ZM140.195 339.026C140.195 339.026 140.195 339.025 140.196 339.024C140.196 339.023 140.198 339.02 140.201 339.017L138.771 337.619C138.468 337.928 138.269 338.329 138.212 338.767L140.195 339.026ZM201.139 331.559V329.559C199.89 329.559 198.947 330.691 199.172 331.92L201.139 331.559ZM149.876 251.777C149.867 251.782 149.861 251.783 149.857 251.783C149.855 251.783 149.853 251.782 149.853 251.782C149.853 251.782 149.852 251.782 149.85 251.78L148.476 253.233C149.158 253.878 150.18 253.957 150.954 253.462L149.876 251.777ZM122.872 319.373C122.743 319.966 122.891 320.592 123.277 321.063L124.825 319.797C124.827 319.799 124.827 319.8 124.826 319.798C124.826 319.796 124.826 319.796 124.826 319.798L122.872 319.373ZM138.747 355.191H136.747C136.747 356.788 138.528 357.741 139.857 356.855L138.747 355.191ZM203.767 355.281C204.759 354.981 205.251 353.99 205.083 353.074L203.116 353.435C203.117 353.44 203.114 353.433 203.123 353.417C203.128 353.409 203.136 353.399 203.148 353.389C203.162 353.378 203.176 353.371 203.188 353.367L203.767 355.281ZM175.749 243.106C175.749 243.107 175.749 243.107 175.749 243.105C175.749 243.104 175.75 243.102 175.75 243.101C175.752 243.097 175.753 243.096 175.753 243.096C175.751 243.098 175.743 243.105 175.723 243.106L175.842 245.103C176.873 245.041 177.746 244.211 177.749 243.111L175.749 243.106ZM163.002 272.23C163.001 272.234 162.999 272.236 162.999 272.236C162.999 272.236 162.999 272.236 163 272.235C163 272.235 163 272.235 163.001 272.235C163.001 272.234 163.001 272.234 163.001 272.234C163.001 272.234 163.001 272.235 163 272.235C162.999 272.235 162.998 272.235 162.997 272.236L163.571 274.152C164.163 273.974 164.631 273.542 164.859 272.973L163.002 272.23ZM142.004 356.378C141.746 354.962 140.123 354.273 138.926 355.071L140.036 356.735L142.004 356.378ZM177.437 353.867C177.241 354.471 177.408 355.053 177.744 355.462C178.066 355.854 178.541 356.097 179.044 356.148L179.245 354.158C179.246 354.158 179.249 354.158 179.254 354.161C179.258 354.163 179.272 354.171 179.289 354.193C179.308 354.215 179.333 354.256 179.345 354.315C179.359 354.378 179.354 354.439 179.339 354.484L177.437 353.867ZM183.109 161.713C182.936 160.542 181.955 159.969 181.064 160.001C180.169 160.033 179.23 160.681 179.158 161.869L181.154 161.991C181.155 161.976 181.157 161.967 181.158 161.963C181.159 161.96 181.159 161.961 181.157 161.965C181.155 161.968 181.152 161.973 181.148 161.979C181.144 161.984 181.14 161.989 181.136 161.993C181.127 162 181.121 162.002 181.122 162.002C181.123 162.002 181.128 162 181.135 162C181.143 162 181.149 162.001 181.151 162.002C181.154 162.002 181.15 162.001 181.142 161.996C181.139 161.993 181.135 161.99 181.131 161.986C181.128 161.982 181.125 161.978 181.124 161.975C181.122 161.973 181.123 161.973 181.124 161.977C181.125 161.98 181.128 161.989 181.13 162.005L183.109 161.713ZM163.811 270.09C163.794 270.149 163.781 270.203 163.772 270.244C163.767 270.265 163.763 270.285 163.76 270.301C163.756 270.318 163.754 270.33 163.751 270.343C163.739 270.396 163.738 270.389 163.747 270.366L165.604 271.109C165.661 270.968 165.69 270.838 165.705 270.767C165.726 270.672 165.727 270.665 165.732 270.647L163.811 270.09ZM142.084 361.637C142.548 361.173 142.755 360.51 142.638 359.865L140.67 360.222L142.084 361.637ZM180.391 351.049C180.135 351.064 179.84 351.13 179.558 351.297L180.58 353.017C180.53 353.046 180.499 353.046 180.512 353.045L180.391 351.049ZM195.134 243.196C195.133 243.196 195.133 243.196 195.132 243.196C195.132 243.196 195.132 243.196 195.132 243.195C195.132 243.195 195.132 243.195 195.131 243.195C195.131 243.195 195.131 243.195 195.131 243.194C195.131 243.194 195.131 243.194 195.131 243.194C195.131 243.194 195.131 243.193 195.13 243.192L193.152 243.484C193.278 244.341 193.938 245.017 194.79 245.166L195.134 243.196ZM167.25 270.843C167.217 270.853 167.181 270.852 167.149 270.841C167.117 270.83 167.098 270.814 167.087 270.799L165.477 271.985C166.015 272.716 166.947 273.002 167.782 272.771L167.25 270.843ZM138.949 364.863C138.938 364.832 138.938 364.805 138.941 364.788C138.944 364.774 138.947 364.773 138.945 364.776L137.53 363.362C136.93 363.962 136.811 364.826 137.067 365.539L138.949 364.863ZM195.149 350.355C195.143 350.347 195.128 350.318 195.126 350.276C195.124 350.236 195.133 350.206 195.143 350.188C195.162 350.153 195.186 350.152 195.176 350.152L195.297 352.149C196.003 352.106 196.598 351.706 196.905 351.136C197.218 350.552 197.218 349.804 196.77 349.184L195.149 350.355ZM218.6 250.248C218.599 250.25 218.599 250.249 218.6 250.249C218.6 250.249 218.598 250.25 218.593 250.25C218.583 250.252 218.562 250.25 218.538 250.236L217.507 251.949C218.304 252.429 219.378 252.349 220.065 251.61L218.6 250.248ZM175.747 269.624C175.747 269.625 175.747 269.625 175.748 269.625C175.748 269.624 175.747 269.625 175.746 269.627C175.745 269.628 175.743 269.629 175.742 269.63C175.741 269.63 175.74 269.631 175.736 269.631L175.896 271.625C176.935 271.542 177.747 270.677 177.747 269.624H175.747ZM136.066 369.762C136.109 369.588 136.325 369.427 136.54 369.454L136.796 367.471C135.607 367.318 134.416 368.089 134.123 369.289L136.066 369.762ZM187.404 347.422C187.764 347.647 188.203 347.844 188.67 347.949C189.132 348.054 189.689 348.084 190.233 347.889L189.558 346.006C189.483 346.033 189.337 346.05 189.112 345.999C188.892 345.949 188.659 345.848 188.462 345.725L187.404 347.422ZM276.363 195.716C277.657 193.706 274.965 191.512 273.269 193.244L274.698 194.643C274.709 194.632 274.716 194.627 274.719 194.625C274.722 194.623 274.721 194.623 274.718 194.625C274.715 194.626 274.71 194.628 274.704 194.629C274.698 194.63 274.692 194.631 274.687 194.631C274.676 194.631 274.672 194.629 274.673 194.63C274.675 194.631 274.681 194.633 274.688 194.639C274.694 194.644 274.698 194.649 274.7 194.651C274.701 194.653 274.698 194.649 274.696 194.64C274.695 194.635 274.694 194.629 274.694 194.623C274.694 194.617 274.695 194.612 274.695 194.609C274.696 194.605 274.696 194.605 274.695 194.609C274.694 194.612 274.69 194.62 274.682 194.633L276.363 195.716ZM179.602 262.344C179.426 261.178 178.457 260.582 177.532 260.656C176.61 260.729 175.747 261.467 175.747 262.642H177.747C177.747 262.604 177.754 262.592 177.752 262.597C177.75 262.602 177.744 262.614 177.732 262.625C177.711 262.647 177.693 262.649 177.691 262.65C177.688 262.65 177.668 262.651 177.641 262.63C177.627 262.619 177.618 262.608 177.615 262.602C177.611 262.596 177.619 262.607 177.625 262.644L179.602 262.344ZM134.588 372.815C134.613 372.874 134.585 372.872 134.613 372.742C134.64 372.614 134.705 372.439 134.817 372.217C135.06 371.734 135.344 371.345 135.624 370.878L133.908 369.851C133.744 370.125 133.31 370.762 133.03 371.317C132.881 371.614 132.734 371.962 132.656 372.326C132.579 372.687 132.554 373.147 132.75 373.603L134.588 372.815ZM174.151 354.681C175.15 354.582 175.666 353.749 175.844 353.162L173.93 352.582C173.918 352.619 173.904 352.652 173.89 352.678C173.875 352.705 173.863 352.719 173.857 352.725C173.852 352.73 173.857 352.723 173.876 352.713C173.896 352.703 173.924 352.693 173.955 352.69L174.151 354.681ZM234.996 259.973C234.995 259.972 234.995 259.972 234.995 259.972C234.995 259.972 234.994 259.971 234.994 259.971C234.994 259.971 234.994 259.971 234.994 259.97C234.994 259.97 234.994 259.97 234.994 259.97C234.994 259.97 234.994 259.97 234.995 259.969L233.313 258.886C232.832 259.633 232.901 260.605 233.48 261.278L234.996 259.973ZM180.655 268.956C180.634 268.958 180.615 268.951 180.601 268.941C180.595 268.936 180.592 268.932 180.592 268.931C180.591 268.93 180.591 268.93 180.591 268.928L178.612 269.222C178.775 270.317 179.774 271.033 180.815 270.95L180.655 268.956ZM132.778 375.559C134.192 375.559 135.145 374.114 134.588 372.815L132.75 373.603C132.75 373.604 132.749 373.602 132.749 373.598C132.748 373.594 132.748 373.59 132.748 373.586C132.749 373.578 132.751 373.575 132.752 373.573C132.753 373.572 132.756 373.568 132.762 373.565C132.766 373.563 132.77 373.561 132.774 373.56C132.778 373.559 132.78 373.559 132.778 373.559V375.559ZM248.218 278.788C248.218 278.788 248.218 278.788 248.219 278.788C248.219 278.788 248.219 278.788 248.219 278.788C248.219 278.787 248.219 278.787 248.219 278.787C248.219 278.787 248.219 278.787 248.219 278.787C248.219 278.787 248.218 278.787 248.218 278.787C248.216 278.787 248.215 278.787 248.212 278.786C248.2 278.784 248.175 278.776 248.14 278.752C248.063 278.699 247.992 278.607 247.96 278.51L246.058 279.129C246.366 280.074 247.417 281.056 248.712 280.726L248.218 278.788ZM190.33 269C190.33 269.001 190.33 269.002 190.33 269.002C190.33 269.001 190.33 269.001 190.33 269.001C190.33 269.001 190.33 269.001 190.329 269.003C190.327 269.004 190.326 269.004 190.325 269.004C190.325 269.004 190.325 269.005 190.321 269.005L190.217 271.002C191.298 271.058 192.235 270.248 192.324 269.161L190.33 269ZM123.447 369.397L121.658 368.502C121.29 369.238 121.41 370.123 121.96 370.735L123.447 369.397ZM117.784 344.164C117.744 344.543 117.813 344.926 117.984 345.268L119.773 344.373L117.784 344.164ZM146.424 331.567C146.427 331.563 146.43 331.561 146.432 331.56C146.433 331.559 146.434 331.559 146.434 331.559C146.434 331.559 146.434 331.559 146.434 331.559C146.434 331.559 146.434 331.559 146.434 331.559V329.559C145.774 329.559 145.165 329.884 144.791 330.413L146.424 331.567ZM184.009 340.773C184.002 340.757 183.993 340.733 183.989 340.7C183.985 340.668 183.986 340.637 183.991 340.609C184.001 340.553 184.021 340.53 184.016 340.537C184.01 340.544 183.989 340.566 183.948 340.59C183.908 340.613 183.862 340.63 183.819 340.638L184.181 342.604C184.711 342.507 185.229 342.222 185.576 341.788C185.945 341.328 186.151 340.641 185.825 339.935L184.009 340.773ZM321.077 261.885C323.195 260.799 321.979 257.474 319.6 258.179L320.168 260.097C320.183 260.092 320.192 260.091 320.195 260.091C320.198 260.091 320.197 260.091 320.193 260.091C320.188 260.09 320.183 260.089 320.177 260.087C320.171 260.085 320.165 260.083 320.161 260.081C320.152 260.076 320.151 260.073 320.153 260.076C320.155 260.078 320.157 260.08 320.159 260.084C320.161 260.088 320.164 260.093 320.166 260.098C320.168 260.103 320.169 260.108 320.17 260.113C320.171 260.117 320.172 260.121 320.172 260.123C320.172 260.128 320.171 260.126 320.174 260.118C320.175 260.114 320.177 260.109 320.18 260.104C320.183 260.099 320.186 260.095 320.188 260.092C320.19 260.09 320.191 260.089 320.188 260.092C320.186 260.094 320.178 260.099 320.165 260.106L321.077 261.885ZM194.741 263.771C194.542 261.32 190.953 261.32 190.754 263.771L192.747 263.933C192.749 263.917 192.751 263.908 192.752 263.904C192.753 263.901 192.753 263.902 192.751 263.905C192.749 263.909 192.746 263.914 192.742 263.919C192.738 263.924 192.734 263.928 192.73 263.931C192.723 263.937 192.719 263.938 192.723 263.936C192.725 263.936 192.728 263.935 192.733 263.934C192.737 263.933 192.742 263.933 192.747 263.933C192.753 263.933 192.758 263.933 192.762 263.934C192.767 263.935 192.77 263.936 192.772 263.936C192.776 263.938 192.772 263.937 192.764 263.931C192.761 263.928 192.756 263.924 192.753 263.919C192.748 263.914 192.746 263.909 192.744 263.905C192.742 263.902 192.742 263.901 192.743 263.904C192.744 263.908 192.746 263.917 192.747 263.933L194.741 263.771ZM125.706 374.897C126.086 375.318 126.626 375.559 127.193 375.559V373.559L125.706 374.897Z" fill="#BE7BB5" mask="url(#path-1-inside-1)"/>
<path d="M139 311.559C139 305.484 143.925 300.559 150 300.559H226C232.075 300.559 237 305.484 237 311.559V316.134C237 322.373 231.818 327.363 225.584 327.127L205.241 326.356C200.551 326.178 196.491 323.045 195.13 318.553L192.504 309.884C191.965 308.105 190.325 306.888 188.467 306.888C186.466 306.888 184.74 308.294 184.335 310.253L182.818 317.599C181.792 322.565 177.505 326.186 172.437 326.367L150.392 327.153C144.167 327.375 139 322.389 139 316.16V311.559Z" fill="url(#paint0_linear)"/>
</g>
<defs>
<linearGradient id="paint0_linear" x1="216.771" y1="384.607" x2="234.12" y2="305.982" gradientUnits="userSpaceOnUse">
<stop offset="0.817256" stop-color="#DFA4D7"/>
<stop offset="0.881335" stop-color="white"/>
<stop offset="0.925891" stop-color="#DFA4D7"/>
</linearGradient>
<clipPath id="clip0">
<rect width="375" height="375" fill="white"/>
</clipPath>
</defs>
</svg>
