<svg width="257" height="257" viewBox="0 0 257 257" fill="none" xmlns="http://www.w3.org/2000/svg">
<g clip-path="url(#clip0)">
<rect width="257" height="257" fill="white"/>
<path d="M182.113 136.187C182.762 136.112 183.35 136.577 183.416 137.227C185.06 153.534 181.532 169.956 173.313 184.16C164.898 198.705 152.013 210.146 136.575 216.784C121.137 223.421 103.97 224.9 87.6242 221.001C71.2785 217.102 56.6271 208.033 45.8474 195.142C35.0677 182.251 28.7351 166.226 27.7907 149.448C26.8464 132.67 31.3407 116.035 40.6057 102.016C49.8707 87.9967 63.4119 77.3409 79.2169 71.6323C94.6506 66.0577 111.439 65.4913 127.197 69.9962C127.825 70.1758 128.179 70.837 127.99 71.4623L126.16 77.5131C125.971 78.1384 125.311 78.491 124.683 78.3126C110.715 74.3481 95.8431 74.8633 82.1679 79.8026C68.1216 84.8761 56.0872 94.3462 47.853 106.806C39.6189 119.265 35.6247 134.049 36.464 148.96C37.3033 163.871 42.9312 178.113 52.5115 189.569C62.0917 201.026 75.1129 209.086 89.6398 212.551C104.167 216.016 119.424 214.702 133.144 208.803C146.864 202.904 158.315 192.736 165.794 179.809C173.076 167.224 176.215 152.679 174.786 138.229C174.721 137.579 175.185 136.992 175.834 136.917L182.113 136.187Z" fill="#DFA4D7"/>
<path d="M190.233 134.534C191.523 134.374 192.705 135.284 192.838 136.578C194.635 154.049 190.84 171.657 181.939 186.975C172.641 202.976 158.273 215.622 140.98 223.022C123.687 230.422 104.398 232.18 85.9928 228.034C67.588 223.888 51.0559 214.059 38.8658 200.017C26.6756 185.974 19.4818 168.472 18.3589 150.123C17.236 131.774 22.2442 113.565 32.6355 98.214C43.0268 82.8633 58.2434 71.1955 76.0124 64.9533C93.0258 58.9767 111.505 58.2812 128.91 62.9301C130.186 63.2709 130.9 64.6133 130.505 65.8738L129.082 70.4237C128.697 71.6573 127.393 72.3492 126.143 72.0187C110.73 67.9423 94.3789 68.5768 79.3201 73.8669C63.5282 79.4144 50.0048 89.784 40.7697 103.427C31.5347 117.069 27.0837 133.253 28.0817 149.56C29.0797 165.867 35.473 181.422 46.3067 193.902C57.1404 206.382 71.8331 215.117 88.1899 218.801C104.547 222.486 121.69 220.924 137.059 214.347C152.428 207.77 165.197 196.532 173.46 182.312C181.321 168.783 184.701 153.246 183.176 137.814C183.047 136.508 183.964 135.315 185.267 135.153L190.233 134.534Z" fill="#784972"/>
<path d="M60.0981 127.671L58.4968 134.868L58.3101 135.707L59.0503 136.143L65.3997 139.89L58.0606 140.591L57.2051 140.673L57.0184 141.512L55.4171 148.708L52.4827 141.945L52.1406 141.156L51.2851 141.238L43.946 141.939L49.4715 137.058L50.1156 136.489L49.7735 135.701L46.839 128.938L53.1884 132.684L53.9286 133.121L54.5727 132.552L60.0981 127.671Z" fill="#DFA4D7" stroke="#784972" stroke-width="2.36579"/>
<path d="M159.052 162.043L154.956 168.475L154.498 169.193L155.034 169.855L159.901 175.871L152.573 173.788L151.725 173.547L151.252 174.291L147.197 180.657L146.681 172.929L146.625 172.098L145.824 171.87L138.374 169.753L145.447 167.116L146.272 166.808L146.214 165.929L145.706 158.327L150.574 164.343L151.109 165.005L151.907 164.707L159.052 162.043Z" fill="#DFA4D7" stroke="#784972" stroke-width="2.36579"/>
<path d="M116.003 103.743L109.571 99.6457L108.853 99.1885L108.191 99.7238L102.175 104.591L104.258 97.2627L104.499 96.4151L103.756 95.9417L97.3891 91.8863L105.117 91.3708L105.948 91.3153L106.176 90.5139L108.293 83.0637L110.931 90.1368L111.238 90.9624L112.118 90.9038L119.719 90.3967L113.703 95.2642L113.042 95.7995L113.339 96.597L116.003 103.743Z" fill="#DFA4D7" stroke="#784972" stroke-width="2.36579"/>
<path d="M102.8 143.286L122.318 134.414L136.513 155.707L117.586 183.505L120.544 204.205H89.7884L89.1969 185.279L80.3252 161.03L89.1969 169.31L96.2943 162.804L122.318 153.932C119.952 153.144 115.93 150.738 118.769 147.426C121.608 144.114 116.009 148.806 112.855 151.566L103.983 149.201L102.8 143.286Z" fill="#EEBD93"/>
<path d="M101.617 129.683L91.5627 135.597L98.0687 145.652L101.617 148.018L101.026 142.695L107.532 139.146L101.617 129.683Z" fill="#EEBD93"/>
<path d="M109.306 138.555L119.361 134.414L115.221 128.5H103.983L109.306 138.555Z" fill="#EEBD93"/>
<path d="M103.983 151.566L107.532 157.481L113.446 154.524L103.983 151.566Z" fill="#EEBD93"/>
<path d="M82.691 145.061L91.5627 139.146L103.983 157.481L96.2943 161.03L82.691 145.061Z" fill="#EEBD93"/>
<path d="M81.5081 146.243L75.0022 154.524L89.1969 166.944L94.52 162.804L81.5081 146.243Z" fill="#EEBD93"/>
<path d="M102.8 143.286L122.318 134.414L136.513 155.707L117.586 183.505L120.544 204.205H89.7884L89.1969 185.279L80.3252 161.03L89.1969 169.31L96.2943 162.804L122.318 153.932C119.952 153.144 115.93 150.738 118.769 147.426C121.608 144.114 116.009 148.806 112.855 151.566L103.983 149.201L102.8 143.286Z" stroke="#2A3141" stroke-width="1.1829"/>
<path d="M101.617 129.683L91.5627 135.597L98.0687 145.652L101.617 148.018L101.026 142.695L107.532 139.146L101.617 129.683Z" stroke="#2A3141" stroke-width="1.1829"/>
<path d="M109.306 138.555L119.361 134.414L115.221 128.5H103.983L109.306 138.555Z" stroke="#2A3141" stroke-width="1.1829"/>
<path d="M103.983 151.566L107.532 157.481L113.446 154.524L103.983 151.566Z" stroke="#2A3141" stroke-width="1.1829"/>
<path d="M82.691 145.061L91.5627 139.146L103.983 157.481L96.2943 161.03L82.691 145.061Z" stroke="#2A3141" stroke-width="1.1829"/>
<path d="M81.5081 146.243L75.0022 154.524L89.1969 166.944L94.52 162.804L81.5081 146.243Z" stroke="#2A3141" stroke-width="1.1829"/>
<path d="M76.7765 157.481L64.3561 167.536C64.1589 171.281 65.4207 178.537 72.0449 177.59C78.6691 176.644 81.9024 173.253 82.691 171.676L76.7765 157.481Z" fill="url(#paint0_linear)"/>
<path d="M125.275 122.586L118.769 129.683L122.909 131.457L127.641 137.963C129.613 132.837 135.093 119.865 141.244 108.982C135.176 108.308 152.742 81.6948 165.795 58.9305C166.824 56.9813 167.883 55.0965 168.969 53.2997C177.082 38.608 182.104 26.7708 175.548 26.7708C161.827 26.7708 136.316 90.6473 125.275 122.586Z" fill="url(#paint1_linear)"/>
<path d="M148.933 103.659L141.244 113.714L155.439 108.982C157.411 106.616 161.945 100.11 164.311 93.0131C160.526 91.5936 173.38 70.3409 180.28 59.892C185.603 53.386 194.711 39.4278 188.56 35.6426C181.558 36.3796 174.867 43.5392 168.969 53.2997C167.954 55.1378 166.891 57.0206 165.795 58.9305C158.061 73.5821 152.014 91.8667 148.933 103.659Z" fill="url(#paint2_linear)"/>
<path d="M139.47 117.854L130.598 136.189L143.019 126.726C175.548 121.797 240.135 109.455 238.242 99.519C234.93 93.3679 232.525 92.6188 231.736 93.0131L159.579 110.757L139.47 117.854Z" fill="url(#paint3_linear)"/>
<path d="M166.085 95.3789L159.579 107.799C182.843 102.082 229.843 88.6364 231.736 80.5927C225.112 74.4416 218.724 74.8753 216.358 75.8611L166.085 95.3789Z" fill="url(#paint4_linear)"/>
<path d="M167.86 91.8302C175.943 73.2981 194.12 36.4706 202.164 37.4169C210.207 38.3632 190.926 70.538 180.28 86.5071L167.86 91.8302Z" fill="url(#paint5_linear)"/>
<path d="M193.883 70.538L216.358 46.8801L222.273 50.4288L205.712 66.3979L193.883 70.538Z" fill="url(#paint6_linear)"/>
<path d="M211.035 64.6235L218.133 56.3433L225.822 52.2031L228.187 56.3433L211.035 64.6235Z" fill="url(#paint7_linear)"/>
<path d="M190.335 74.6782L183.829 84.7328L234.693 68.1722L231.736 59.892L190.335 74.6782Z" fill="url(#paint8_linear)"/>
<path d="M165.795 58.9305C152.742 81.6948 135.176 108.308 141.244 108.982C135.093 119.865 129.613 132.837 127.641 137.963L122.909 131.457L118.769 129.683L125.275 122.586C136.316 90.6473 161.827 26.7708 175.548 26.7708C182.104 26.7708 177.082 38.608 168.969 53.2997M165.795 58.9305C166.824 56.9813 167.883 55.0965 168.969 53.2997M165.795 58.9305C158.061 73.5821 152.014 91.8667 148.933 103.659L141.244 113.714L155.439 108.982C157.411 106.616 161.945 100.11 164.311 93.0131C160.526 91.5936 173.38 70.3409 180.28 59.892C185.603 53.386 194.711 39.4278 188.56 35.6426C181.558 36.3796 174.867 43.5392 168.969 53.2997M165.795 58.9305C166.891 57.0206 167.954 55.1378 168.969 53.2997M76.7765 157.481L64.3561 167.536C64.1589 171.281 65.4207 178.537 72.0449 177.59C78.6691 176.644 81.9024 173.253 82.691 171.676L76.7765 157.481ZM139.47 117.854L130.598 136.189L143.019 126.726C175.548 121.797 240.135 109.455 238.242 99.519C234.93 93.3679 232.525 92.6188 231.736 93.0131L159.579 110.757L139.47 117.854ZM166.085 95.3789L159.579 107.799C182.843 102.082 229.843 88.6364 231.736 80.5927C225.112 74.4416 218.724 74.8753 216.358 75.8611L166.085 95.3789ZM167.86 91.8302C175.943 73.2981 194.12 36.4706 202.164 37.4169C210.207 38.3632 190.926 70.538 180.28 86.5071L167.86 91.8302ZM190.335 74.6782L183.829 84.7328L234.693 68.1722L231.736 59.892L190.335 74.6782ZM193.883 70.538L216.358 46.8801L222.273 50.4288L205.712 66.3979L193.883 70.538ZM211.035 64.6235L218.133 56.3433L225.822 52.2031L228.187 56.3433L211.035 64.6235Z" stroke="#2A3141" stroke-width="1.1829"/>
</g>
<defs>
<linearGradient id="paint0_linear" x1="64.3561" y1="178.182" x2="209.852" y2="40.3742" gradientUnits="userSpaceOnUse">
<stop stop-color="#D3BF80"/>
<stop offset="0.424553" stop-color="#A0BB48"/>
<stop offset="1" stop-color="#547859"/>
</linearGradient>
<linearGradient id="paint1_linear" x1="64.3561" y1="178.182" x2="209.852" y2="40.3742" gradientUnits="userSpaceOnUse">
<stop stop-color="#D3BF80"/>
<stop offset="0.424553" stop-color="#A0BB48"/>
<stop offset="1" stop-color="#547859"/>
</linearGradient>
<linearGradient id="paint2_linear" x1="64.3561" y1="178.182" x2="209.852" y2="40.3742" gradientUnits="userSpaceOnUse">
<stop stop-color="#D3BF80"/>
<stop offset="0.424553" stop-color="#A0BB48"/>
<stop offset="1" stop-color="#547859"/>
</linearGradient>
<linearGradient id="paint3_linear" x1="64.3561" y1="178.182" x2="209.852" y2="40.3742" gradientUnits="userSpaceOnUse">
<stop stop-color="#D3BF80"/>
<stop offset="0.424553" stop-color="#A0BB48"/>
<stop offset="1" stop-color="#547859"/>
</linearGradient>
<linearGradient id="paint4_linear" x1="64.3561" y1="178.182" x2="209.852" y2="40.3742" gradientUnits="userSpaceOnUse">
<stop stop-color="#D3BF80"/>
<stop offset="0.424553" stop-color="#A0BB48"/>
<stop offset="1" stop-color="#547859"/>
</linearGradient>
<linearGradient id="paint5_linear" x1="64.3561" y1="178.182" x2="209.852" y2="40.3742" gradientUnits="userSpaceOnUse">
<stop stop-color="#D3BF80"/>
<stop offset="0.424553" stop-color="#A0BB48"/>
<stop offset="1" stop-color="#547859"/>
</linearGradient>
<linearGradient id="paint6_linear" x1="64.3561" y1="178.182" x2="209.852" y2="40.3742" gradientUnits="userSpaceOnUse">
<stop stop-color="#D3BF80"/>
<stop offset="0.424553" stop-color="#A0BB48"/>
<stop offset="1" stop-color="#547859"/>
</linearGradient>
<linearGradient id="paint7_linear" x1="64.3561" y1="178.182" x2="209.852" y2="40.3742" gradientUnits="userSpaceOnUse">
<stop stop-color="#D3BF80"/>
<stop offset="0.424553" stop-color="#A0BB48"/>
<stop offset="1" stop-color="#547859"/>
</linearGradient>
<linearGradient id="paint8_linear" x1="64.3561" y1="178.182" x2="209.852" y2="40.3742" gradientUnits="userSpaceOnUse">
<stop stop-color="#D3BF80"/>
<stop offset="0.424553" stop-color="#A0BB48"/>
<stop offset="1" stop-color="#547859"/>
</linearGradient>
<clipPath id="clip0">
<rect width="257" height="257" fill="white"/>
</clipPath>
</defs>
</svg>
